<?xml version="1.0" encoding="UTF-8"?> <svg xmlns="http://www.w3.org/2000/svg" xmlns:xlink="http://www.w3.org/1999/xlink" width="102px" height="102px" viewBox="0 0 102 102" version="1.1"><title>page-search</title><g id="page-search" stroke="none" stroke-width="1" fill="none" fill-rule="evenodd"><g id="Group-193" transform="translate(1.000000, 1.000000)"><circle id="Oval" fill="#00BE09" cx="50" cy="50" r="50"></circle><g id="Vector" transform="translate(20.000000, 23.000000)" fill="#FFFFFF" fill-rule="nonzero"><path d="M59.5127419,50.8522 L51.0252581,42.1016 C52.8905806,39.2707 53.6650645,35.8242 53.1972581,32.4357 C52.7294516,29.0473 51.0530323,25.9605 48.4956774,23.7789 C45.9383226,21.5974 42.684,20.4778 39.3687097,20.639 C36.0534194,20.8003 32.9157097,22.2309 30.5688387,24.651 C28.2220645,27.0712 26.8348065,30.307 26.6784194,33.7258 C26.5220323,37.1446 27.6076452,40.5007 29.7232258,43.1379 C31.8387097,45.7752 34.8319355,47.504 38.1177097,47.9864 C41.4034839,48.4688 44.7456774,47.6701 47.4907742,45.7464 L55.9783548,54.497 C56.2909355,54.8191 56.7146129,55 57.1564839,55 C57.5983548,55 58.022129,54.8191 58.3346129,54.497 L59.5127419,53.281 C59.8247419,52.9587 60,52.522 60,52.0666 C60,51.6112 59.8247419,51.1744 59.5127419,50.8522 Z M40.0001613,42.9685 C38.352,42.9685 36.7408065,42.4645 35.3703871,41.5202 C33.9999677,40.5759 32.931871,39.2338 32.3010968,37.6635 C31.6704194,36.0932 31.5054194,34.3653 31.8269032,32.6983 C32.1484839,31.0313 32.942129,29.5 34.1075806,28.2982 C35.2730323,27.0963 36.7579355,26.2778 38.3744516,25.9462 C39.9909677,25.6147 41.6665161,25.7848 43.1891613,26.4353 C44.7119032,27.0857 46.0134194,28.1872 46.9290968,29.6004 C47.8447742,31.0136 48.3335806,32.6752 48.3335806,34.3748 C48.3310645,36.6532 47.4522581,38.8376 45.8900323,40.4487 C44.3277097,42.0597 42.2095161,42.966 40.0001613,42.9685 Z M5.00002258,49.8435 L5.00002258,5.16589 L21.6667742,5.16589 L21.6667742,16.3377 C21.6658065,16.6766 21.7297742,17.0122 21.8550968,17.3255 C21.9804194,17.6387 22.1644839,17.9233 22.3968387,18.1629 C22.6291935,18.4025 22.9051935,18.5924 23.208871,18.7216 C23.5126452,18.8508 23.8381935,18.9168 24.1667419,18.9158 L32.8428387,18.9158 C35.0189032,17.8416 37.4261613,17.1906 40.0001613,17.1906 L40.0001613,14.1796 C39.9980323,12.8098 39.4699355,11.4966 38.5314194,10.5273 L29.7917419,1.51464 C28.8558387,0.547123 27.5857742,0.00234237 26.2605484,0 L5.00002258,0 C3.67366452,0.00454275 2.40302903,0.550571 1.46603226,1.51866 C0.529025806,2.48674 0.00192054194,3.79809 0,5.16589 L0,49.8435 C0,51.211 0.526786452,52.5225 1.46447419,53.4895 C2.40215806,54.4565 3.67393548,54.9997 5.00002258,54.9997 L35.000129,54.9997 C36.0363871,54.9973 37.0462258,54.662 37.889129,54.0404 C38.7320323,53.4187 39.3661935,52.5416 39.7032581,51.5311 C37.3302581,51.4826 34.9951935,50.907 32.8574516,49.8435 L5.00002258,49.8435 Z M26.6668065,5.58591 L34.593871,13.7585 L26.6668065,13.7585 L26.6668065,5.58591 Z" id="Shape"></path></g></g></g></svg> 