<?xml version="1.0" encoding="UTF-8"?> <svg xmlns="http://www.w3.org/2000/svg" xmlns:xlink="http://www.w3.org/1999/xlink" width="102px" height="102px" viewBox="0 0 102 102" version="1.1"><title>puzzle</title><g id="puzzle" stroke="none" stroke-width="1" fill="none" fill-rule="evenodd"><g id="Group-183" transform="translate(1.000000, 1.000000)"><circle id="Oval" fill="#00BE09" cx="50" cy="50" r="50"></circle><path d="M29.7361111,78.333333 C32.5949068,78.333333 34.8894682,77.8198776 36.6197917,76.7929684 C38.6510417,75.692708 39.6666667,73.9689661 39.6666667,71.6217445 C39.6666667,70.8148874 39.4785874,70.0447051 39.1024306,69.3111976 C38.8767361,68.7977422 38.4629624,68.137586 37.8611111,67.3307289 C37.2592598,66.5238718 36.8454861,65.9370652 36.6197917,65.5703122 C36.2436348,64.8368047 36.0555556,64.1399737 36.0555556,63.4798175 C36.0555556,62.6729604 36.6574068,61.9761277 37.8611111,61.3893227 C39.0648154,60.8025177 40.3061348,60.5091144 41.5850694,60.5091144 C42.8640041,60.5091144 44.0677083,60.8025177 45.1961806,61.3893227 C46.3246528,61.9761277 46.8888889,62.6362839 46.8888889,63.3697914 C46.8888889,63.8832468 46.7384265,64.3967006 46.4375,64.910156 C46.2870376,65.2769089 45.9484959,65.7903643 45.421875,66.4505206 C44.7447917,67.4040802 44.2557876,68.1742624 43.9548611,68.7610674 C43.5034722,69.714627 43.2777778,70.778211 43.2777778,71.9518226 C43.2777778,75.1792526 45.0457182,77.1230465 48.5815972,77.7832028 C50.7633096,78.223307 54.0358791,78.1499557 58.3993056,77.5631507 C60.1296291,77.3430986 61.2957182,77.2147344 61.8975694,77.1780596 C62.4994207,77.1413848 63.5150457,77.1230465 64.9444444,77.1230465 L66.75,77.1230465 L66.6371528,76.7929684 C64.6059028,70.998263 64.1168987,67.4407549 65.1701389,66.1204424 C65.3958333,65.8270391 65.734375,65.7536895 66.1857639,65.9003904 L66.1857639,65.9003904 L66.6913197,66.1644525 C67.0163197,66.3404941 67.4496528,66.5825515 67.9913194,66.8906247 C69.1950237,67.6974818 70.1354167,68.2842885 70.8125,68.6510414 C72.0914346,69.2378464 73.3703709,69.5312497 74.6493056,69.5312497 C77.1319444,69.5312497 79.1631944,68.3943145 80.7430556,66.1204424 C82.2476846,63.9932729 83,61.6093748 83,58.9687498 C83,56.6215281 82.4357639,54.4943569 81.3072917,52.5872394 C79.953125,50.3867186 78.2228015,49.0664061 76.1163194,48.6263019 C73.5584485,48.0394969 70.6620376,48.736328 67.4270833,50.7167967 C66.5995376,51.2302521 66.1105318,51.5236538 65.9600694,51.597005 C64.8315972,51.597005 64.5306707,49.5798615 65.0572917,45.5455728 C65.3582182,43.4184032 65.8848374,40.8511278 66.6371528,37.8437499 L66.6371528,37.8437499 L66.4114583,37.8437499 C56.4056707,39.7508674 50.4623848,40.0075959 48.5815972,38.6139322 C48.5815972,38.1004768 48.9765625,37.3119579 49.7664931,36.2483723 C50.5564236,35.1847867 51.1394682,34.3229166 51.515625,33.6627603 C52.0422459,32.5624999 52.3055556,31.3888883 52.3055556,30.141927 C52.3055556,27.7213541 51.3275457,25.7592236 49.3715278,24.2555338 C47.4155098,22.7518441 45.1209485,22 42.4878472,22 C39.5538194,22 36.9207182,22.696831 34.5885417,24.0904948 C31.9554404,25.7042106 30.6388889,27.7580289 30.6388889,30.2519531 C30.6388889,31.7189664 30.9774306,33.1126301 31.6545139,34.4329426 C32.0306707,35.2397997 32.6325237,36.1933593 33.4600694,37.2936197 C33.9114583,37.8804247 34.1747679,38.2838541 34.25,38.5039062 C34.25,39.8242186 31.9178235,40.1909716 27.2534722,39.6041666 C24.4699068,39.3107632 21.3854167,38.7239582 18,37.8437499 L18,37.8437499 L18,76.5729163 L18.3385417,76.6829424 C22.7019682,77.7832028 26.5011568,78.333333 29.7361111,78.333333 Z M29.8648277,73.0643083 L28.9461806,73.052083 C27.2158571,72.9787318 25.3726846,72.7586797 23.4166667,72.3919268 L23.4166667,72.3919268 L23.4166667,44.5553384 C27.8553235,45.2888459 31.4664346,45.2888459 34.25,44.5553384 C37.8611111,43.6751301 39.6666667,41.6213101 39.6666667,38.3938801 C39.6666667,37.587023 39.4785874,36.8168407 39.1024306,36.0833333 C38.8767361,35.5698778 38.4629624,34.9097216 37.8611111,34.1028645 C37.2592598,33.2960074 36.8454861,32.7092008 36.6197917,32.3424479 C36.2436348,31.6089404 36.0555556,30.8754345 36.0555556,30.141927 C36.0555556,29.4084195 36.8831013,28.7115885 38.5381944,28.0514323 C39.9675932,27.5379768 41.2465278,27.28125 42.375,27.28125 C43.5034722,27.28125 44.5190972,27.5013021 45.421875,27.9414062 C46.3998848,28.4548616 46.8888889,29.1883675 46.8888889,30.141927 C46.8888889,30.5820312 46.7384265,31.0954866 46.4375,31.6822916 C46.2870376,31.9756949 45.9484959,32.4524739 45.421875,33.1126301 C44.6695596,34.0661897 44.1429404,34.836372 43.8420139,35.423177 C43.390625,36.4500862 43.1649306,37.5503466 43.1649306,38.7239582 C43.1649306,41.6579866 45.0833333,43.5284293 48.9201389,44.3352863 C51.5532402,44.8487417 55.1267361,44.8487417 59.640625,44.3352863 C59.1892361,47.7827684 59.3773154,50.6067707 60.2048611,52.8072915 C61.2581013,55.5212677 63.1765041,56.878255 65.9600694,56.878255 C66.7123848,56.878255 67.5023154,56.6948777 68.3298611,56.3281248 C68.78125,56.1080727 69.4207182,55.7413198 70.2482639,55.2278644 C71.0758096,54.714409 71.7152778,54.3476561 72.1666667,54.127604 C72.9189821,53.8342006 73.7089126,53.6874998 74.5364583,53.6874998 C75.3640041,53.6874998 76.0787043,54.2559683 76.6805556,55.3929034 C77.2824068,56.5298386 77.5833333,57.7217885 77.5833333,58.9687498 C77.5833333,60.215711 77.2824068,61.4076609 76.6805556,62.5445961 C76.0787043,63.6815313 75.4016209,64.2499998 74.6493056,64.2499998 C74.1226846,64.2499998 73.5584485,64.1032989 72.9565972,63.8098956 C72.5804404,63.6631948 72.0538194,63.3331166 71.3767361,62.8196612 C70.3987263,62.0861537 69.6087957,61.6093748 69.0069444,61.3893227 C67.9537043,60.8758673 66.8628472,60.6191404 65.734375,60.6191404 C63.4774306,60.6191404 61.7471071,61.4626739 60.5434028,63.1497393 C59.2644682,65.2035593 58.9635417,68.1742624 59.640625,72.0618487 L59.640625,72.0618487 L58.5121528,72.2819007 C52.7945596,73.0154082 49.5596071,73.052083 48.8072917,72.3919268 C48.5063652,72.1718747 48.46875,71.8417966 48.6944444,71.4016924 C48.8449068,71.1082891 49.1834485,70.5581589 49.7100694,69.7513018 C50.4623848,68.6510414 51.0266209,67.7341583 51.4027778,67.0006508 C52.0046291,65.7536895 52.3055556,64.5434031 52.3055556,63.3697914 C52.3055556,60.9492185 51.1770833,58.9687498 48.9201389,57.4283852 C46.8136568,55.9613719 44.3686348,55.2278644 41.5850694,55.2278644 C38.8015041,55.2278644 36.3188652,55.9613719 34.1371528,57.4283852 C31.8049763,58.9687498 30.6388889,60.9858933 30.6388889,63.4798175 C30.6388889,64.9468308 30.9398154,66.3404945 31.5416667,67.660807 C31.9178235,68.3943145 32.5196765,69.2745228 33.3472222,70.301432 C33.7986111,70.888237 34.0807292,71.3100046 34.1935764,71.5667315 C34.3064236,71.8234583 34.25,72.0618487 34.0243056,72.2819007 C33.1967598,72.8687057 31.5040515,73.1254343 28.9461806,73.052083 L29.8648277,73.0643083 Z" id="API" fill="#FFFFFF"></path></g></g></svg> 