<?xml version="1.0" encoding="UTF-8"?> <svg xmlns="http://www.w3.org/2000/svg" id="uuid-01ab5cad-0cf4-41a3-8547-48a1d5b3b627" width="80" height="80" viewBox="0 0 80 80"><g id="uuid-baa6d064-a82a-4994-b5bb-6df5edd3cd8d"><g id="uuid-36a65b25-4611-46c3-841d-c08b12f8c5c8"><path id="uuid-ca36d528-bd50-414b-ad6d-4fb686b1ba52" d="m54.4,0H0v54.67l25.33,25.33h54.67V25.6L54.4,0Z" fill="#fff" stroke-width="0"></path><path id="uuid-7bbe4968-86c9-4931-85f9-800ee62fa8eb" d="m53.73,1.67l24.6,24.6v52.07H26L1.67,54V1.67h52.07m.67-1.67H0v54.67l25.33,25.33h54.67V25.6L54.4,0Z" fill="#242e3d" stroke-width="0"></path><path id="uuid-8603be4e-f0db-4ee5-a7ab-0c8f7497bae7" d="m17.8,18.33c0,.27,0,.54.14.8.07.2.2.47.27.67.07.07.07.14.07.2,0,.13-.07.2-.2.27l-.6.4h-.2c-.14,0-.2-.07-.27-.13-.13-.14-.27-.27-.33-.4-.07-.13-.2-.33-.27-.53-.67.8-1.6,1.27-2.67,1.27-.67.07-1.33-.2-1.8-.67-.47-.47-.67-1.07-.67-1.74,0-.73.27-1.4.8-1.86.6-.47,1.4-.73,2.2-.73.33,0,.67,0,.93.07.33.07.67.13,1,.2v-.67c.07-.53-.07-1.07-.4-1.46-.4-.33-.93-.46-1.46-.4-.33,0-.67.07-1,.13-.33.07-.67.2-1,.33-.13.07-.2.07-.33.14h-.13c-.14,0-.2-.07-.2-.27v-.47c0-.13,0-.2.07-.33.07-.07.14-.13.27-.2.33-.2.73-.33,1.13-.4.47-.14.93-.2,1.4-.2.86-.07,1.67.2,2.33.73.53.6.8,1.4.73,2.2l.2,3.07Zm-3.67,1.33c.33,0,.6-.07.93-.13.33-.14.6-.33.87-.6.13-.14.27-.33.33-.6.07-.27.07-.54.07-.8v-.4c-.27-.07-.54-.13-.8-.13-.27-.07-.54-.07-.87-.07-.46-.07-.93.07-1.33.33-.54.53-.6,1.4-.13,2,.26.33.6.46.93.4Zm7.27,1c-.13,0-.27,0-.33-.07-.07-.07-.13-.2-.2-.33l-2.14-7c-.07-.14-.07-.27-.07-.33,0-.14.07-.2.13-.2h.93c.14,0,.27,0,.33.07.07.07.14.2.2.33l1.53,5.93,1.4-5.93c0-.13.07-.26.2-.33.14-.07.27-.07.33-.07h.73c.14,0,.27,0,.33.07.07.07.14.2.2.33l1.4,6.07,1.54-6.07c0-.13.07-.26.2-.33.14-.07.2-.07.33-.07h.87c.13,0,.2.07.2.14v.2c0,.07-.07.14-.07.2l-2.13,6.93c0,.13-.07.26-.2.33-.07.13-.2.13-.33.13h-.8c-.13,0-.27,0-.33-.07-.07-.14-.13-.2-.2-.33l-1.4-5.8-1.4,5.8c0,.13-.07.27-.2.33-.07.07-.2.07-.26.07h-.8Zm11.6.27c-.46,0-.93-.07-1.4-.14-.33-.07-.73-.2-1.07-.33-.2-.07-.33-.26-.33-.53v-.47c0-.2.07-.26.2-.26h.14c.07,0,.13.07.2.07.33.13.67.27,1,.33.33.07.73.13,1.07.13.47,0,.93-.07,1.33-.33.27-.2.47-.53.47-.86,0-.27-.07-.47-.27-.6-.27-.2-.6-.4-.93-.47l-1.33-.4c-.53-.13-1.07-.46-1.46-.93-.27-.4-.47-.86-.47-1.33,0-.33.07-.67.27-1,.14-.26.4-.53.67-.73.27-.2.6-.4.93-.46.4-.14.73-.14,1.13-.14.2,0,.4,0,.6.07.2,0,.4.07.6.13s.33.07.54.13c.13.07.26.07.4.14.13.07.2.13.27.2.07.07.07.2.07.33v.4c0,.2-.07.26-.2.26s-.27-.07-.33-.13c-.53-.27-1.13-.33-1.73-.33-.4,0-.8.07-1.2.27-.26.13-.46.46-.4.8,0,.27.07.47.27.67.27.27.6.4,1,.47l1.27.4c.53.13,1,.46,1.4.86.27.33.4.8.4,1.27,0,.33-.07.73-.27,1.07-.13.33-.4.6-.67.8-.26.2-.67.4-1,.53-.26.07-.73.14-1.13.14Z" fill="#242e3d" stroke-width="0"></path><path id="uuid-7edc181f-a2ea-457b-896b-c829834f644b" d="m34.67,25.27c-3,2.2-7.27,3.33-11,3.33-4.93,0-9.73-1.8-13.4-5.14-.27-.26,0-.6.33-.4,4.07,2.4,8.73,3.6,13.4,3.6,3.54,0,7-.73,10.27-2.07.46-.2.93.33.4.67Zm.46,2c-.13.27.14.4.4.2,1.6-1.33,2-4.13,1.67-4.53-.33-.4-3.14-.73-4.8.46-.27.2-.2.47.07.4.93-.13,3.07-.4,3.47.14.4.53-.47,2.46-.8,3.33Z" fill="#f90" stroke-width="0"></path><path id="uuid-eac0369c-5fd8-4ba6-8959-6467f77bb816" d="m30.75,42.76c0-.68.12-1.27.36-1.78.25-.51.61-.91,1.08-1.19.48-.27,1.05-.42,1.71-.42s1.19.14,1.67.41c.47.26.84.65,1.09,1.16.25.51.39,1.11.39,1.82,0,.83-.18,1.52-.53,2.08-.35.56-.84.95-1.49,1.15.26.15.55.26.84.33.3.08.65.13,1.05.17v1.14c-.56-.06-1.12-.23-1.67-.48-.55-.26-1.04-.59-1.48-1-.94-.02-1.69-.33-2.23-.93-.53-.6-.8-1.42-.8-2.46Zm1.44,0c0,.74.15,1.3.44,1.69.29.38.72.57,1.28.57s.98-.19,1.27-.57c.29-.39.44-.95.44-1.69s-.15-1.3-.44-1.68c-.29-.38-.71-.57-1.27-.57s-.99.19-1.28.57c-.29.38-.44.94-.44,1.68Z" fill="#242e3d" stroke-width="0"></path><path id="uuid-04d14e4f-fa8e-4de5-8a8d-4f69daf5f159" d="m41.44,46l-.12-.5c-.56.42-1.14.63-1.74.63-.42,0-.75-.12-.99-.38-.24-.25-.35-.6-.35-1.04v-3.49h1.36v3.11c0,.5.22.75.66.75.32,0,.64-.1.95-.3v-3.56h1.36v4.77h-1.12Z" fill="#242e3d" stroke-width="0"></path><path id="uuid-7aa185a0-092a-40ed-825c-0adda9e35923" d="m46.6,46l-.11-.42c-.19.17-.41.31-.67.42-.25.1-.5.15-.73.15-.46,0-.83-.13-1.1-.39-.28-.26-.42-.61-.42-1.05,0-.3.07-.56.22-.78.15-.23.37-.41.65-.54.29-.13.62-.2.99-.2.3,0,.63.04.99.13v-.47c0-.28-.06-.48-.18-.58-.12-.11-.33-.17-.65-.17-.52,0-1.08.1-1.7.29v-.91c.24-.12.53-.21.87-.28.35-.07.7-.1,1.06-.1.64,0,1.1.13,1.4.39.3.26.45.66.45,1.22v3.3h-1.07Zm-1.13-.76c.15,0,.31-.04.48-.1.17-.07.32-.16.46-.28v-.81c-.27-.04-.51-.06-.73-.06-.54,0-.81.22-.81.65,0,.19.05.35.16.46.1.1.25.16.45.16Z" fill="#242e3d" stroke-width="0"></path><path id="uuid-a8bb4769-08ed-4abb-b709-464e7e5192c3" d="m51.06,45.91c-.26.1-.54.16-.83.16-.84,0-1.26-.47-1.26-1.41v-5.56h1.36v5.45c0,.17.02.3.08.38.06.07.16.1.29.1.09,0,.21,0,.35-.03v.92Z" fill="#242e3d" stroke-width="0"></path><path id="uuid-ecea5a69-ed9f-46d5-9efd-ebc8a1c8be47" d="m52.03,41.23h1.36v4.77h-1.36v-4.77Zm.69-.74c-.24,0-.43-.06-.57-.19-.15-.13-.22-.31-.22-.54s.07-.4.22-.52c.15-.13.34-.2.57-.2s.42.07.56.2c.15.12.22.3.22.52s-.07.41-.22.54c-.14.12-.33.19-.56.19Z" fill="#242e3d" stroke-width="0"></path><path id="uuid-7191116e-1adb-4168-8398-4895f4199d8b" d="m54.97,46v-3.76h-.75v-.84l.75-.14v-.43c0-.63.14-1.1.43-1.41.29-.31.73-.47,1.33-.47.17,0,.34.02.52.05.18.03.34.08.47.14v.93c-.24-.03-.45-.05-.63-.05-.29,0-.49.05-.6.15-.1.09-.16.25-.16.49v.57h1.33v1.01h-1.33v3.76h-1.36Z" fill="#242e3d" stroke-width="0"></path><path id="uuid-8358d45e-0d46-4d9f-b04f-2b857998753a" d="m58.4,41.23h1.36v4.77h-1.36v-4.77Zm.69-.74c-.24,0-.43-.06-.57-.19-.15-.13-.22-.31-.22-.54s.07-.4.22-.52c.15-.13.34-.2.57-.2s.42.07.56.2c.15.12.22.3.22.52s-.07.41-.22.54c-.14.12-.33.19-.56.19Z" fill="#242e3d" stroke-width="0"></path><path id="uuid-2aa05bc1-1f23-44e5-8858-642e26d2242c" d="m62.12,43.95c.02.41.15.71.38.9.22.18.57.27,1.05.27.42,0,.91-.08,1.46-.24v.91c-.21.12-.48.2-.78.26-.3.06-.61.09-.94.09-.79,0-1.38-.21-1.8-.63-.42-.43-.63-1.06-.63-1.89s.2-1.42.61-1.85c.42-.44.99-.67,1.72-.67.61,0,1.08.17,1.42.51.33.33.5.82.5,1.45,0,.14-.01.3-.03.47-.02.17-.04.32-.06.43h-2.9Zm1.02-1.92c-.31,0-.55.09-.73.28-.17.18-.27.44-.3.79h1.83v-.16c0-.61-.27-.92-.8-.92Z" fill="#242e3d" stroke-width="0"></path><path id="uuid-dac4eb4d-90e0-46b3-96ed-75ff7130df92" d="m69.38,46l-.11-.42c-.38.35-.84.52-1.38.52-.39,0-.74-.1-1.03-.29-.3-.2-.53-.48-.7-.85-.17-.38-.25-.82-.25-1.32,0-.77.18-1.39.55-1.84.37-.46.85-.7,1.46-.7.49,0,.92.14,1.28.42v-2.42h1.36v6.91h-1.19Zm-1.04-.93c.3,0,.59-.09.86-.26v-2.46c-.27-.16-.58-.24-.93-.24s-.57.13-.74.38c-.16.24-.24.61-.24,1.11s.08.86.25,1.1c.17.25.44.36.79.36Z" fill="#242e3d" stroke-width="0"></path><path id="uuid-37e111e1-8a3a-4fa7-8e6b-0744425e57bc" d="m33.17,52.18c-.56-.21-.95-.46-1.2-.75-.25-.3-.37-.68-.37-1.14,0-.58.22-1.05.65-1.4.44-.35,1.01-.52,1.74-.52.61,0,1.21.11,1.79.33v1.06c-.6-.19-1.16-.28-1.68-.28-.74,0-1.1.24-1.1.71,0,.18.06.33.19.44.13.11.37.23.72.35l.7.25c.58.21.99.45,1.23.74.25.29.38.65.38,1.1,0,.65-.24,1.15-.7,1.52-.46.37-1.09.55-1.89.55-.35,0-.7-.03-1.05-.1-.35-.06-.65-.15-.9-.26v-1.06c.31.1.65.17,1,.23.35.06.67.08.96.08.37,0,.65-.07.85-.2.2-.14.3-.33.3-.58,0-.19-.06-.34-.19-.45-.12-.12-.36-.24-.73-.38l-.71-.26Z" fill="#242e3d" stroke-width="0"></path><path id="uuid-b3d32cc8-ceda-4766-bb80-eeb52ed96bd9" d="m39.4,55.14c-.75,0-1.32-.22-1.74-.67-.42-.44-.62-1.06-.62-1.85s.21-1.41.62-1.85c.42-.44.99-.67,1.74-.67s1.32.22,1.74.67c.42.44.62,1.06.62,1.85s-.21,1.41-.62,1.85c-.42.44-1,.67-1.74.67Zm0-1.04c.65,0,.98-.49.98-1.48s-.33-1.48-.98-1.48-.98.49-.98,1.48.33,1.48.98,1.48Z" fill="#242e3d" stroke-width="0"></path><path id="uuid-535c9d7e-7811-4bf8-9bb3-7c4b5bbbd6b1" d="m43.05,55v-3.76h-.75v-.84l.75-.14v-.43c0-.63.14-1.1.43-1.41.29-.31.73-.47,1.33-.47.17,0,.34.02.52.05.18.03.34.08.47.14v.93c-.24-.03-.45-.05-.63-.05-.29,0-.49.05-.6.15-.1.09-.16.25-.16.49v.57h1.33v1.01h-1.33v3.76h-1.36Z" fill="#242e3d" stroke-width="0"></path><path id="uuid-c623f3aa-fb9a-4edb-abfb-1681206c5e8f" d="m49.28,54.87c-.33.13-.71.2-1.13.2-.53,0-.92-.13-1.18-.37-.25-.25-.37-.64-.37-1.16v-2.3h-.72v-.84l.76-.15.2-1.31h1.13v1.29h1.28v1.01h-1.28v2.24c0,.21.05.34.15.43.1.08.26.11.5.11.19,0,.42-.02.67-.05v.91Z" fill="#242e3d" stroke-width="0"></path><path id="uuid-2b5209e0-033c-43a3-86a9-4602a4b5f8c1" d="m54.01,55l-.81-3.35-.83,3.35h-1.32l-1.52-4.77h1.44l.8,3.45.85-3.45h1.22l.89,3.46.74-3.46h1.41l-1.53,4.77h-1.32Z" fill="#242e3d" stroke-width="0"></path><path id="uuid-8d38d7a3-e060-4efc-aee3-4c193b6b97df" d="m60.3,55l-.11-.42c-.19.17-.41.31-.67.42-.25.1-.5.15-.73.15-.46,0-.83-.13-1.1-.39-.28-.26-.42-.61-.42-1.05,0-.3.07-.56.22-.78.15-.23.37-.41.65-.54.29-.13.61-.2.99-.2.3,0,.63.04.99.13v-.47c0-.28-.06-.48-.18-.58-.12-.11-.33-.17-.65-.17-.52,0-1.08.1-1.7.29v-.91c.24-.12.53-.21.87-.28.35-.07.7-.1,1.06-.1.64,0,1.1.13,1.4.39.3.26.45.66.45,1.22v3.3h-1.07Zm-1.13-.76c.15,0,.31-.04.48-.1.17-.07.32-.16.46-.28v-.81c-.27-.04-.51-.06-.73-.06-.54,0-.81.22-.81.65,0,.19.05.35.16.46.1.1.25.16.45.16Z" fill="#242e3d" stroke-width="0"></path><path id="uuid-f6f29217-f06f-4a48-9523-113b77347e7f" d="m62.67,55v-4.77h1.11l.17.71c.25-.27.48-.46.71-.57.22-.12.46-.18.71-.18.12,0,.24,0,.37.02v1.26c-.18-.03-.37-.05-.58-.05-.4,0-.78.07-1.13.22v3.36h-1.36Z" fill="#242e3d" stroke-width="0"></path><path id="uuid-94d217e6-e229-430e-8ba1-258973b89019" d="m67.46,52.95c.02.41.15.71.37.9.22.18.57.27,1.05.27.42,0,.91-.08,1.46-.24v.91c-.22.12-.48.2-.78.26-.3.06-.61.09-.94.09-.79,0-1.39-.21-1.8-.64-.42-.43-.63-1.06-.63-1.89s.2-1.42.61-1.85c.42-.44.99-.67,1.72-.67.61,0,1.08.17,1.42.51.33.33.5.82.5,1.45,0,.14-.01.3-.03.47-.02.17-.04.32-.06.43h-2.9Zm1.02-1.92c-.31,0-.55.09-.73.28-.17.18-.27.44-.3.79h1.83v-.16c0-.61-.27-.92-.8-.92Z" fill="#242e3d" stroke-width="0"></path></g></g></svg> 