<?xml version="1.0" encoding="UTF-8"?> <svg xmlns="http://www.w3.org/2000/svg" xmlns:xlink="http://www.w3.org/1999/xlink" id="uuid-4f1a0827-2a36-48ac-a5cc-3caf4cc7f7fd" width="140.06" height="79.05" viewBox="0 0 140.06 79.05"><defs><clipPath id="uuid-f3c10d47-68a4-4492-8389-0e363422f66e"><rect x="46.37" y="8.41" width="76.02" height="60.5" fill="none" stroke-width="0"></rect></clipPath><clipPath id="uuid-5cd45d09-213b-4d5e-91c1-ebaeba6717d6"><rect x="15.54" y="15.86" width="47.37" height="47.37" fill="none" stroke-width="0"></rect></clipPath><clipPath id="uuid-5d78fec8-c35d-4a17-852a-8dc07fe51799"><path d="m39.22,15.86c-13.08,0-23.68,10.6-23.68,23.68s10.6,23.68,23.68,23.68,23.68-10.6,23.68-23.68-10.6-23.68-23.68-23.68" fill="none" stroke-width="0"></path></clipPath><clipPath id="uuid-93524e83-60b2-4f54-b8f4-ebdc068b2467"><rect x="15.54" y="15.86" width="47.38" height="47.38" fill="none" stroke-width="0"></rect></clipPath><clipPath id="uuid-84980d08-ab4c-4d5e-9d81-6f5cc24d56f5"><path d="m39.23,15.86c-13.08,0-23.69,10.61-23.69,23.69s10.61,23.69,23.69,23.69,23.69-10.61,23.69-23.69-10.61-23.69-23.69-23.69" fill="none" stroke-width="0"></path></clipPath><clipPath id="uuid-3e0168ef-4d25-40da-866d-b77af3244cd9"><rect x="23.82" y="22.11" width="30.83" height="36.54" fill="none" stroke-width="0"></rect></clipPath><clipPath id="uuid-0001eac8-7051-44ad-9da1-257d7343e418"><rect x="32.17" y="34.88" width="14.83" height="10.85" fill="none" stroke-width="0"></rect></clipPath></defs><g id="uuid-1f5a2a75-d76e-4559-8d2a-2accda26258c"><path d="m99.24,8.41h34.26c1.74,0,3.41.69,4.64,1.92,1.23,1.23,1.92,2.9,1.92,4.64v47.37c0,1.74-.69,3.41-1.92,4.64s-2.9,1.92-4.64,1.92h-34.26c-1.74,0-3.41-.69-4.64-1.92s-1.92-2.9-1.92-4.64V14.97c0-1.74.69-3.41,1.92-4.64s2.9-1.92,4.64-1.92" fill="#dde0e4" stroke-width="0"></path><rect x="46.37" y="8.41" width="76.02" height="60.5" fill="#dde0e4" stroke-width="0"></rect><g clip-path="url(#uuid-f3c10d47-68a4-4492-8389-0e363422f66e)"><path d="m46.37,8.41h76.04v60.43H46.37V8.41Z" fill="#dde0e4" stroke-width="0"></path></g><path d="m77.61,39.92l1.13,3.74-.13.24-1.72,3.12-.23.42.04.47.33,3.72v.12s-1.69,1.96-1.69,1.96l-.84.98-.29.33-.05.45-.4,3.15-.09.69-3.12,2.37-.33.25-.14.39-1.28,3.68-3.55,1.66-.36.17-.22.35-2.03,3.33-3.78.88-.42.1-.3.33-2.65,2.82-3.88.09h-.45s-.36.26-.36.26l-3.19,2.21-3.8-.73-.44-.09-.4.17-3.59,1.5-3.57-1.5-.4-.17-.43.09-3.82.73-3.18-2.21-.37-.25h-.47s-3.85-.09-3.85-.09l-2.64-2.81-.31-.33-.44-.1-3.78-.88-2.04-3.35-.2-.34-.35-.17-3.55-1.66-1.28-3.68-.14-.39-.34-.25s0,0,0-.01l-3.1-2.34-.09-.69-.4-3.13-.05-.45-.3-.35-.83-.96-1.7-1.97v-.12s.33-3.72.33-3.72l.04-.46-.22-.4-1.74-3.13-.13-.25,1.13-3.75.12-.39-.12-.39-.7-2.31-.43-1.44,1.87-3.39.22-.4-.04-.47-.04-.41-.29-3.43,2.53-2.91.3-.35.06-.47.48-3.82,3.1-2.34.35-.26.14-.41,1.28-3.66,3.54-1.67.37-.18.22-.35,2.02-3.34,3.8-.88.42-.1.3-.31,2.65-2.83,3.86-.08h.47s.37-.27.37-.27l3.18-2.2,3.84.73.41.08.38-.16,3.6-1.51,3.61,1.52.38.15.42-.08,3.83-.73,3.19,2.2.36.25h.44s3.88.09,3.88.09l2.66,2.84.29.31.41.09,3.8.89,2.03,3.34.22.35.36.17,3.55,1.67,1.28,3.68.14.39.33.25,3.12,2.36.49,3.84.05.45.29.34,2.53,2.92-.29,3.43-.04.41-.04.47.23.42,1.85,3.37-.43,1.43-.7,2.3-.12.39.12.39" fill="#fff" stroke-width="0"></path><g clip-path="url(#uuid-5cd45d09-213b-4d5e-91c1-ebaeba6717d6)"><g clip-path="url(#uuid-5d78fec8-c35d-4a17-852a-8dc07fe51799)"><path d="m15.54,15.86h47.37v47.37H15.54V15.86Z" fill="#fff" stroke-width="0"></path></g></g><g clip-path="url(#uuid-93524e83-60b2-4f54-b8f4-ebdc068b2467)"><g clip-path="url(#uuid-84980d08-ab4c-4d5e-9d81-6f5cc24d56f5)"><path d="m39.23,15.86c-13.08,0-23.69,10.61-23.69,23.69s10.61,23.69,23.69,23.69,23.69-10.61,23.69-23.69-10.61-23.69-23.69-23.69" fill="#576278" stroke-width="0"></path></g></g><g clip-path="url(#uuid-3e0168ef-4d25-40da-866d-b77af3244cd9)"><path d="m54.31,27.42c-.46-.52-1.21-.38-1.82-.52-4.41-.73-8.55-2.53-12.5-4.55-.19-.09-.38-.17-.58-.23h-.29c-.69.21-1.3.6-1.94.9-3.47,1.71-7.11,3.18-10.93,3.85-.55.11-1.12.1-1.66.26-.43.19-.74.64-.72,1.11-.05,2.64.05,5.28.26,7.91.3,3.35.78,6.72,1.91,9.9.55,1.48,1.24,2.93,2.29,4.12,2.85,3.38,6.4,6.15,10.28,8.26.17.08.34.15.51.2h.25c.69-.2,1.26-.66,1.9-.98,3.01-1.78,5.76-4,8.13-6.57.72-.81,1.45-1.62,1.96-2.58,1.19-2.12,1.82-4.5,2.29-6.86.81-4.32,1.02-8.72.99-13.1.01-.39-.02-.82-.31-1.11h0Zm-1.67,13.24c-.49,2.66-1.12,5.37-2.54,7.69-1.27,1.84-2.9,3.39-4.58,4.85-1.93,1.65-4.05,3.06-6.28,4.28-3.9-2.12-7.48-4.91-10.3-8.36-1.46-1.86-2.14-4.18-2.69-6.45-1.05-4.75-1.3-9.64-1.23-14.49,5.04-.57,9.75-2.64,14.23-4.92,4.48,2.27,9.19,4.34,14.23,4.91.06,4.18-.14,8.37-.84,12.48h0Z" fill="#fff" stroke-width="0"></path></g><path d="m27.28,30.16c.09,4.49.34,9.03,1.53,13.38.47,1.6,1.06,3.23,2.21,4.49,2.3,2.75,5.15,5,8.23,6.83,3.27-1.95,6.29-4.38,8.67-7.37,1.12-1.55,1.66-3.42,2.1-5.26.89-3.96,1.12-8.03,1.19-12.07-4.19-.81-8.16-2.44-11.96-4.34-3.8,1.9-7.78,3.53-11.96,4.34Z" fill="#fff" stroke-width="0"></path><g clip-path="url(#uuid-0001eac8-7051-44ad-9da1-257d7343e418)"><path d="m46.79,36.1c.21.21.21.54,0,.74l-7.25,7.13-1.65,1.62c-.13.13-.34.13-.47,0l-1.65-1.62-3.39-3.34c-.21-.21-.21-.54,0-.74l1.03-1.01c.21-.21.55-.21.76,0l3.39,3.34c.05.05.14.05.2,0l7.25-7.13c.21-.21.55-.21.76,0l1.03,1.01" fill="#474f61" stroke-width="0"></path></g></g><g id="uuid-f955583c-3bc5-41eb-a851-2f2c96882503"><path d="m7.35,43.35l3.98-.37.08.9-3.98.37-.08-.9Z" fill="#576278" stroke-width="0"></path><path d="m7.64,46.03l3.91-.81.23,1.11c.06.3.08.58.05.83-.03.26-.1.49-.23.69-.12.2-.3.37-.52.52-.22.15-.5.26-.83.33-.34.07-.64.08-.91.04-.27-.04-.5-.13-.7-.26-.2-.13-.36-.31-.49-.52-.13-.22-.22-.47-.28-.76l-.24-1.15h0Zm.9.74l.04.17c.04.17.09.31.16.43.07.13.17.23.29.3s.26.12.43.14c.17.02.37,0,.61-.04.23-.05.42-.12.57-.21.15-.08.26-.18.33-.3.07-.12.12-.24.13-.39s0-.3-.04-.47l-.04-.17-2.48.52h0Z" fill="#576278" stroke-width="0"></path><path d="m8.76,50.68l3.76-1.34.84,2.36-.72.26-.54-1.5-.76.27.46,1.27-.71.26-.46-1.27-.86.31.56,1.56-.72.26-.86-2.41h0Z" fill="#576278" stroke-width="0"></path><path d="m10.29,54.65l3.54-1.86.43.82-1.27,1.85-.6.76v.02c.19-.12.39-.25.61-.4.22-.14.43-.27.64-.38l1.25-.66.41.76-3.54,1.86-.43-.82,1.28-1.85.58-.75v-.02c-.2.12-.4.25-.61.39-.21.14-.42.27-.63.38l-1.26.66s-.4-.76-.4-.76Z" fill="#576278" stroke-width="0"></path><path d="m13.19,59.61l2.62-1.89-.64-.88.62-.45,1.81,2.51-.62.45-.64-.89-2.62,1.89-.53-.74h0Z" fill="#576278" stroke-width="0"></path><path d="m15.33,62.34l2.97-2.67.6.67-2.97,2.67-.6-.67Z" fill="#576278" stroke-width="0"></path><path d="m17.74,64.83l2.17-2.4-.81-.74.51-.57,2.3,2.08-.51.57-.81-.74-2.17,2.4-.67-.61h0Z" fill="#576278" stroke-width="0"></path><path d="m20.99,67.47l.81-1.16.48-2.81.8.55-.23.96c-.04.16-.08.31-.12.46-.04.14-.08.29-.12.45l.02.02c.14-.09.27-.19.39-.27.13-.08.26-.17.39-.27l.81-.55.78.54-2.46,1.43-.81,1.16-.74-.51h0Z" fill="#576278" stroke-width="0"></path><path d="m26.7,70.82c-.24-.1-.46-.25-.66-.45-.19-.19-.35-.41-.46-.67l.72-.36c.08.17.19.33.31.47.13.14.27.24.42.31.17.07.32.1.43.07.11-.02.19-.09.24-.2.03-.06.04-.11.03-.16,0-.05-.02-.1-.06-.15-.03-.05-.07-.11-.13-.17s-.11-.12-.18-.19l-.38-.42c-.08-.07-.15-.16-.21-.26-.06-.1-.11-.2-.14-.31-.03-.11-.05-.23-.04-.35,0-.12.04-.25.1-.39.06-.15.16-.28.28-.38s.26-.18.42-.23c.16-.05.33-.07.51-.05.19.01.37.06.57.15.21.09.4.23.57.4.17.17.3.37.39.6l-.65.33c-.08-.14-.17-.27-.26-.37-.09-.1-.22-.19-.36-.25-.14-.06-.27-.09-.38-.07-.11.02-.19.08-.24.19-.02.06-.03.11-.02.16.01.05.04.11.07.16.04.06.09.11.14.17.05.06.11.12.18.19l.39.41c.18.19.3.39.36.6s.03.45-.08.71c-.07.15-.17.29-.29.39-.12.11-.26.19-.43.24-.16.05-.35.06-.55.05-.2-.01-.41-.07-.62-.17h0Z" fill="#576278" stroke-width="0"></path><path d="m29.58,71.89l1.14-3.83,2.4.71-.21.73-1.54-.45-.23.77,1.3.39-.21.73-1.3-.39-.26.87,1.59.47-.21.73-2.45-.73h0Z" fill="#576278" stroke-width="0"></path><path d="m33.67,72.99l.61-3.95,1.42.22c.21.03.41.08.59.15s.33.17.45.28c.12.11.21.25.27.42.05.17.06.37.02.61-.05.29-.14.52-.3.69s-.35.28-.58.34l.65,1.72-1-.15-.54-1.54-.49-.08-.22,1.42-.89-.14h0Zm1.22-2l.46.07c.24.04.43.02.57-.06.14-.08.22-.22.25-.41.03-.19,0-.34-.12-.43-.11-.1-.29-.17-.52-.2l-.46-.07-.17,1.11h0Z" fill="#576278" stroke-width="0"></path><path d="m38.98,73.57l-1.14-4.01.95.02.45,1.87c.05.22.1.43.15.64.04.21.09.42.15.64h.03c.06-.22.11-.43.17-.64.05-.21.11-.42.17-.64l.5-1.86.92.02-1.27,3.97-1.08-.02h0Z" fill="#576278" stroke-width="0"></path><path d="m42.53,73.5l-.36-3.98.9-.08.36,3.98-.9.08Z" fill="#576278" stroke-width="0"></path><path d="m46.85,72.96c-.25.05-.49.05-.73.01-.24-.04-.46-.13-.65-.27-.2-.13-.37-.32-.52-.55-.15-.23-.25-.51-.32-.84-.06-.32-.07-.62-.02-.89.05-.27.14-.51.27-.73.13-.21.3-.39.51-.52.21-.14.44-.23.69-.28.25-.05.49-.05.71.02s.41.15.56.26l-.35.65c-.12-.07-.24-.13-.36-.16-.12-.04-.25-.04-.39-.01-.13.03-.25.08-.36.17-.11.08-.19.18-.26.3-.06.12-.11.27-.13.43s-.01.35.03.55c.08.41.23.7.44.89.22.19.47.25.77.19.16-.03.29-.09.41-.19.11-.09.21-.21.28-.33l.58.46c-.26.45-.65.73-1.16.83h0Z" fill="#576278" stroke-width="0"></path><path d="m49.54,72.21l-1.29-3.78,2.37-.81.24.72-1.51.52.26.76,1.28-.43.24.71-1.28.43.3.87,1.57-.54.24.72-2.43.83h0Z" fill="#576278" stroke-width="0"></path><path d="m55.31,69.86l-2-3.46,1.19-.69c.19-.11.39-.19.57-.25.19-.06.37-.08.54-.07.17.01.34.07.49.17.16.1.3.25.42.47.11.2.18.4.19.59.01.19-.01.37-.08.54-.07.17-.17.32-.3.46-.13.14-.3.26-.48.37l-.43.24.68,1.17-.78.45h0Zm-.25-2.24l.38-.22c.42-.24.53-.55.31-.92-.1-.18-.23-.28-.39-.29-.15-.01-.34.05-.55.17l-.36.21.61,1.05h0Z" fill="#576278" stroke-width="0"></path><path d="m59.18,67.48l-2.46-3.15,1.14-.88c.17-.13.34-.24.51-.32.17-.08.34-.13.51-.14.17-.01.33.02.49.1.17.08.32.21.47.39.18.23.28.46.29.69.01.23-.03.45-.15.65l1.71.7-.8.63-1.49-.67-.39.31.88,1.14-.71.55h0Zm-.62-2.25l.36-.29c.19-.15.3-.3.34-.45s0-.31-.13-.47c-.12-.15-.26-.22-.4-.21-.15.02-.31.1-.51.24l-.36.29.69.88h0Z" fill="#576278" stroke-width="0"></path><path d="m63.95,63.38c-.19.2-.39.35-.61.44-.22.09-.45.14-.7.13-.24,0-.48-.07-.73-.18-.25-.11-.49-.28-.73-.51-.24-.22-.42-.45-.54-.7-.12-.24-.19-.48-.21-.71-.02-.24.01-.47.1-.69.08-.22.22-.43.41-.63.19-.19.39-.34.61-.44.22-.1.45-.15.69-.14.23,0,.47.07.72.18.25.11.49.28.73.5.24.23.42.46.54.7.13.24.2.48.22.71.02.24,0,.47-.09.7-.08.23-.22.44-.41.63h0Zm-.57-.53c.19-.2.25-.44.19-.71-.06-.28-.24-.56-.53-.84-.29-.28-.57-.43-.84-.47-.28-.04-.51.05-.7.24-.19.2-.25.44-.2.71.06.27.23.54.52.81.29.28.58.44.86.49.28.05.51-.03.7-.23h0Z" fill="#576278" stroke-width="0"></path><path d="m66.56,60.14l-3.96-1.32.55-.78,1.81.69c.21.08.42.16.61.24.19.08.4.16.61.24l.02-.02c-.15-.17-.29-.34-.43-.5-.14-.16-.28-.33-.43-.5l-1.26-1.46.54-.76,2.57,3.29-.63.88h0Z" fill="#576278" stroke-width="0"></path><path d="m68.51,57.17l-3.49-1.95.44-.79,3.49,1.95-.44.79Z" fill="#576278" stroke-width="0"></path><path d="m69.78,54.79l-3.69-1.54.44-1.04c.12-.28.26-.52.43-.72.17-.2.36-.35.58-.45.21-.1.46-.14.73-.13.27,0,.56.08.87.21.32.13.57.3.77.48.2.18.34.39.43.61.09.22.12.46.1.71-.02.25-.08.51-.19.78l-.46,1.09h0Zm-.32-1.11l.07-.16c.07-.16.11-.31.12-.45.01-.15-.01-.28-.07-.41-.05-.13-.15-.25-.27-.36-.13-.11-.3-.22-.53-.31-.22-.09-.41-.14-.58-.15-.17-.01-.32,0-.44.06-.13.05-.23.13-.33.24-.09.11-.17.25-.24.41l-.07.16,2.34.98h0Z" fill="#576278" stroke-width="0"></path><path d="m71.49,50.33l-3.86-1.02.64-2.42.74.2-.41,1.55.78.2.35-1.31.73.2-.35,1.31.88.23.42-1.61.74.2-.65,2.48h0Z" fill="#576278" stroke-width="0"></path><path d="m72.47,46.2l-3.97-.49.17-1.43c.03-.21.08-.41.14-.58.06-.18.15-.34.26-.47.11-.13.25-.22.42-.28.17-.06.37-.08.6-.05.29.04.53.13.7.29.17.15.29.34.36.57l1.7-.7-.13,1-1.52.58-.07.49,1.43.18-.11.9h0Zm-2.04-1.16l.06-.47c.03-.23,0-.42-.08-.55s-.22-.22-.42-.24c-.19-.02-.34.02-.43.14-.09.12-.16.29-.19.52l-.06.47,1.11.14h0Z" fill="#576278" stroke-width="0"></path><path d="m10.67,34.11c-.09.51-.3.88-.65,1.09-.35.22-.85.27-1.51.15l-2.11-.36.15-.89,2.2.38c.39.07.67.06.84-.04.17-.09.28-.25.31-.47.04-.22,0-.4-.14-.55-.13-.15-.39-.25-.78-.32l-2.2-.38.14-.86,2.11.36c.66.12,1.12.33,1.37.65.26.31.34.72.26,1.22h0Z" fill="#576278" stroke-width="0"></path><path d="m11.22,31.22l-3.79-1.25.28-.85,1.55.51v-.03s-1.17-1.64-1.17-1.64l.31-.94,1.13,1.65,2.72-.61-.31.94-1.9.39.43.64,1.02.33-.28.85h0Z" fill="#576278" stroke-width="0"></path><path d="m14.34,24.12c-.14.24-.31.44-.5.61-.19.16-.41.28-.64.35-.23.06-.49.08-.76.04-.27-.04-.55-.14-.84-.31-.29-.17-.52-.36-.69-.58-.17-.22-.29-.45-.36-.69-.07-.25-.08-.49-.04-.74.04-.25.12-.49.25-.73.15-.25.32-.44.51-.57.19-.13.39-.22.57-.27l.26.71c-.13.04-.25.09-.36.16s-.21.18-.29.33c-.08.13-.13.27-.14.42-.01.14,0,.28.05.42.05.13.13.27.24.39.11.12.25.23.43.33.35.21.68.29.97.24.29-.05.53-.23.71-.57.04-.07.07-.15.09-.22.02-.08.03-.15.02-.21l-.59-.35-.33.57-.64-.37.73-1.26,1.59.92c.05.19.06.4.02.65-.04.24-.12.49-.26.73h0Z" fill="#576278" stroke-width="0"></path><path d="m16.72,20.67c-.17.21-.36.37-.58.49-.21.12-.44.18-.68.19-.24,0-.48-.03-.74-.13-.26-.09-.51-.24-.77-.45-.25-.2-.45-.42-.59-.64-.14-.23-.23-.46-.27-.69-.04-.23-.03-.47.04-.7.07-.23.19-.45.36-.66.17-.21.35-.37.57-.49.21-.12.43-.19.67-.2s.49.03.74.12c.25.09.51.23.76.43.26.21.46.43.6.65.15.23.24.47.28.7.04.23.03.47-.04.7-.06.23-.18.45-.35.66h0Zm-.6-.48c.17-.21.21-.45.13-.73-.08-.27-.28-.53-.6-.78-.31-.25-.6-.38-.87-.39-.28-.02-.5.08-.67.29s-.22.45-.14.72c.08.26.27.52.58.76.32.25.62.39.9.42.29.02.51-.07.69-.29h0Z" fill="#576278" stroke-width="0"></path><path d="m19.15,17.88l-3.61-2.08.7-.65,1.62,1.03c.19.12.38.24.55.36.17.12.36.23.55.36l.02-.02c-.11-.2-.21-.39-.32-.58-.11-.18-.21-.37-.32-.58l-.93-1.68.67-.63,1.86,3.72-.79.74h0Z" fill="#576278" stroke-width="0"></path><path d="m21.53,15.77l-2.33-3.24,2.03-1.46.45.62-1.3.93.47.65,1.11-.8.44.61-1.11.8.54.74,1.34-.97.45.62-2.08,1.49h0Z" fill="#576278" stroke-width="0"></path><path d="m24.68,13.61l-1.87-3.53,1.27-.68c.19-.1.38-.17.56-.22.18-.05.36-.07.52-.05.17.02.33.08.47.19.15.1.27.25.39.47.14.26.2.5.17.73-.02.23-.11.43-.26.61l1.55.99-.89.48-1.35-.92-.44.23.68,1.27-.79.42h0Zm-.22-2.33l.42-.22c.21-.11.34-.24.41-.39.06-.15.05-.31-.04-.48-.09-.17-.21-.26-.36-.27-.15-.01-.33.03-.53.14l-.42.22s.52.99.52.99Z" fill="#576278" stroke-width="0"></path><path d="m28.43,11.72l-1.34-3.76.87-.31,1.65,1.52.67.7h.02c-.09-.21-.19-.42-.31-.65-.12-.24-.21-.47-.29-.69l-.48-1.33.81-.29,1.34,3.76-.87.31-1.65-1.52-.66-.69h-.02c.09.21.2.43.3.66.11.23.2.45.28.67l.48,1.33-.81.29h0Z" fill="#576278" stroke-width="0"></path><path d="m32.7,10.29l-.71-3.92.97-.18.94,1.63c.06.11.13.23.19.35.06.12.12.23.18.34h.02c.01-.13.03-.26.04-.39.01-.13.03-.26.05-.39l.3-1.86.97-.17.71,3.92-.81.15-.26-1.44c-.02-.1-.04-.21-.05-.32l-.04-.36c0-.12-.02-.24-.03-.36,0-.12-.01-.23-.01-.32h-.03s-.15.99-.15.99l-.29,1.61-.49.09-.83-1.4-.48-.87h-.02c.03.09.06.19.09.31.04.11.07.23.1.35.04.12.07.23.09.35.03.12.05.22.07.32l.26,1.44-.8.14h0Z" fill="#576278" stroke-width="0"></path><path d="m37.75,9.53l-.12-3.99,2.5-.08.02.76-1.6.05.02.8,1.36-.04.02.76-1.36.04.02.92,1.66-.05.02.76-2.56.08h0Z" fill="#576278" stroke-width="0"></path><path d="m41.57,9.49l.44-3.97.92.1.81,2.08.29.92h.03s0-.71,0-.71c0-.26.02-.51.05-.74l.15-1.4.85.09-.44,3.97-.92-.1-.81-2.09-.29-.91h-.02c0,.22,0,.46-.01.72,0,.25-.01.5-.04.73l-.15,1.41s-.85-.09-.85-.09Z" fill="#576278" stroke-width="0"></path><path d="m46.8,10.3l.8-3.13-1.06-.27.19-.74,3,.77-.19.74-1.06-.27-.8,3.13-.88-.23h0Z" fill="#576278" stroke-width="0"></path><path d="m52.94,12.6c-.23-.11-.43-.26-.59-.43-.16-.17-.28-.37-.36-.59-.08-.23-.1-.48-.08-.75.02-.28.1-.57.24-.87.14-.3.31-.54.52-.73.21-.19.42-.33.65-.42.23-.09.47-.13.72-.11.25.01.49.07.71.19.23.11.42.26.56.44.14.18.24.36.3.54l-.69.32c-.05-.13-.11-.25-.19-.35-.08-.1-.18-.19-.31-.25-.12-.05-.25-.08-.38-.08-.13,0-.26.03-.39.09-.13.06-.25.15-.36.27-.11.12-.21.28-.3.46-.18.37-.24.69-.18.98.06.28.23.48.49.61.15.07.29.1.44.09.15,0,.29-.04.43-.09l.19.71c-.47.21-.94.2-1.42-.02h0Z" fill="#576278" stroke-width="0"></path><path d="m55.06,13.64l2.18-3.34,2.09,1.37-.42.64-1.34-.87-.43.67,1.14.74-.42.64-1.14-.74-.5.77,1.38.9-.42.64-2.14-1.4h0Z" fill="#576278" stroke-width="0"></path><path d="m58.21,15.8l2.61-3.01,1.09.94c.16.14.29.29.41.44.11.15.19.31.24.47.04.16.04.33,0,.51-.04.17-.14.35-.3.53-.19.22-.4.36-.62.42s-.45.05-.67-.02l-.36,1.8-.77-.67.36-1.58-.37-.33-.94,1.09s-.68-.59-.68-.59Zm2.09-1.04l.36.3c.17.15.34.24.5.24.16,0,.31-.07.43-.21.13-.15.17-.29.13-.43-.04-.14-.15-.29-.32-.45l-.36-.3s-.74.85-.74.85Z" fill="#576278" stroke-width="0"></path><path d="m61.84,19.23l2.43-2.13-.73-.82.57-.51,2.04,2.32-.57.51-.72-.82-2.43,2.13-.59-.68h0Z" fill="#576278" stroke-width="0"></path><path d="m63.82,21.66l3.26-2.3.52.73-3.26,2.3-.52-.73Z" fill="#576278" stroke-width="0"></path><path d="m65.15,23.61l3.48-1.96,1.23,2.19-.67.37-.79-1.41-.8.45.68,1.21-.66.37-.68-1.21-1.35.76-.44-.78h0Z" fill="#576278" stroke-width="0"></path><path d="m66.88,26.9l3.66-1.59.36.83-3.66,1.59-.36-.83Z" fill="#576278" stroke-width="0"></path><path d="m67.79,29.08l3.8-1.2.75,2.38-.73.23-.48-1.53-.76.24.41,1.3-.72.23-.41-1.3-.87.28.5,1.58-.73.23-.77-2.44h0Z" fill="#576278" stroke-width="0"></path><path d="m68.86,32.74l3.94-.67.19,1.11c.05.3.06.58.02.83-.04.25-.12.48-.25.69-.13.2-.31.37-.54.5-.23.13-.51.23-.85.29-.34.06-.65.06-.91.01-.26-.05-.49-.14-.69-.29-.19-.14-.35-.33-.47-.55-.12-.22-.21-.47-.26-.76l-.2-1.16h0Zm.86.77l.03.17c.03.17.08.33.15.45.07.13.16.23.27.31.12.08.26.13.43.16.17.03.37.03.61-.02.23-.04.42-.09.57-.18.15-.08.27-.18.35-.29.08-.11.13-.24.14-.39.01-.14,0-.3-.02-.48l-.03-.17-2.5.43h0Z" fill="#576278" stroke-width="0"></path><path d="m84.3,23.64v-4.72h1.7c.25,0,.48.02.7.07.22.05.41.13.58.24.16.11.29.26.39.45.1.19.15.42.15.7,0,.35-.08.63-.23.86-.15.22-.35.39-.61.5l1.07,1.89h-1.2l-.9-1.7h-.58v1.7h-1.06,0Zm1.06-2.55h.55c.28,0,.49-.06.64-.18.15-.12.22-.29.22-.52s-.07-.4-.22-.49c-.15-.09-.36-.14-.64-.14h-.55v1.33Z" fill="#576278" stroke-width="0"></path><path d="m88.59,23.64v-4.72h1.06v4.72h-1.06Z" fill="#576278" stroke-width="0"></path><path d="m92.69,23.73c-.32,0-.63-.05-.91-.15-.28-.11-.53-.26-.73-.47s-.37-.45-.49-.76c-.12-.3-.18-.65-.18-1.05s.06-.73.18-1.04c.12-.31.29-.57.5-.78.21-.21.45-.38.73-.49.28-.11.58-.17.89-.17.34,0,.63.06.88.19.25.12.45.27.6.42l-.55.69c-.12-.11-.25-.2-.39-.27-.13-.07-.3-.11-.51-.11-.18,0-.35.04-.51.11-.15.07-.28.17-.39.3-.11.13-.2.29-.26.48-.06.19-.09.4-.09.64,0,.49.11.87.33,1.14.22.27.55.4.99.4.1,0,.19-.01.29-.04.09-.02.17-.06.23-.11v-.81h-.78v-.87h1.72v2.17c-.17.16-.39.3-.65.41-.27.11-.57.17-.9.17h0Z" fill="#576278" stroke-width="0"></path><path d="m95.07,23.64v-4.72h1.06v1.81h1.62v-1.81h1.08v4.72h-1.08v-1.97h-1.62v1.97s-1.06,0-1.06,0Z" fill="#576278" stroke-width="0"></path><path d="m100.71,23.64v-3.82h-1.3v-.89h3.66v.89h-1.3v3.82h-1.07,0Z" fill="#576278" stroke-width="0"></path><path d="m105.88,23.64v-3.82h-1.3v-.89h3.66v.89h-1.3v3.82h-1.07,0Z" fill="#576278" stroke-width="0"></path><path d="m110.75,23.73c-.32,0-.61-.06-.87-.17-.26-.11-.49-.28-.68-.49-.19-.21-.33-.47-.43-.77-.1-.31-.15-.65-.15-1.04s.05-.73.15-1.04c.1-.3.25-.55.43-.76.19-.21.42-.36.68-.47.27-.11.56-.17.87-.17s.61.06.87.17c.26.11.49.27.67.47.19.21.34.46.44.76.1.3.15.65.15,1.03s-.05.73-.15,1.04c-.1.3-.25.56-.44.77-.19.21-.41.37-.67.49-.26.11-.55.17-.87.17h0Zm0-.92c.33,0,.58-.14.77-.42.19-.28.29-.65.29-1.13s-.09-.84-.29-1.11c-.19-.27-.44-.4-.77-.4s-.58.13-.77.4c-.19.27-.28.64-.28,1.11s.09.85.28,1.13c.19.28.45.42.77.42Z" fill="#576278" stroke-width="0"></path><path d="m115.34,23.64l-.87-4.72h1.09l.33,2.21c.03.25.06.49.09.74.04.25.07.49.09.74h.03c.05-.25.09-.5.14-.74.05-.25.1-.5.15-.74l.51-2.21h.9l.51,2.21c.05.24.09.49.14.74.05.25.1.5.15.75h.02c.04-.25.07-.5.1-.75.03-.25.06-.49.09-.74l.33-2.21h1.02l-.84,4.72h-1.34l-.47-2.14c-.04-.18-.07-.37-.1-.55-.03-.19-.06-.37-.08-.54h-.03c-.03.17-.06.35-.09.54s-.07.37-.11.55l-.44,2.14h-1.32,0Z" fill="#576278" stroke-width="0"></path><path d="m122.57,23.73c-.32,0-.61-.06-.87-.17-.26-.11-.49-.28-.68-.49-.19-.21-.33-.47-.43-.77-.1-.31-.15-.65-.15-1.04s.05-.73.15-1.04c.1-.3.25-.55.43-.76.19-.21.42-.36.68-.47.27-.11.56-.17.87-.17s.61.06.87.17c.26.11.49.27.67.47.19.21.34.46.44.76.1.3.15.65.15,1.03s-.05.73-.15,1.04c-.1.3-.25.56-.44.77-.19.21-.41.37-.67.49-.26.11-.55.17-.87.17h0Zm0-.92c.33,0,.58-.14.77-.42.19-.28.29-.65.29-1.13s-.09-.84-.29-1.11c-.19-.27-.44-.4-.77-.4s-.58.13-.77.4c-.19.27-.28.64-.28,1.11s.09.85.28,1.13c.19.28.45.42.77.42Z" fill="#576278" stroke-width="0"></path><path d="m125.45,23.64v-4.72h1.7c.25,0,.48.02.7.07.22.05.41.13.58.24.16.11.29.26.39.45.1.19.15.42.15.7,0,.35-.08.63-.23.86-.15.22-.35.39-.61.5l1.07,1.89h-1.2l-.9-1.7h-.58v1.7h-1.06,0Zm1.06-2.55h.55c.28,0,.49-.06.64-.18.15-.12.22-.29.22-.52s-.07-.4-.22-.49c-.15-.09-.36-.14-.64-.14h-.55v1.33Z" fill="#576278" stroke-width="0"></path><path d="m129.73,23.64v-4.72h1.06v1.93h.02l1.41-1.93h1.17l-1.43,1.88,1.69,2.84h-1.16l-1.15-1.99-.55.73v1.27s-1.06,0-1.06,0Z" fill="#576278" stroke-width="0"></path><path d="m83.9,42.7v-4.72h1.33c.36,0,.69.05.98.14.29.09.54.23.74.42.21.19.37.43.48.73.11.29.17.65.17,1.05s-.06.76-.17,1.06c-.11.3-.27.55-.48.74-.2.19-.45.34-.73.44-.28.09-.6.14-.94.14h-1.39Zm1.06-.86h.2c.2,0,.38-.03.55-.08.17-.05.31-.14.42-.26.11-.12.2-.27.27-.47.07-.19.1-.43.1-.71s-.03-.52-.1-.71c-.06-.19-.15-.34-.27-.45-.12-.11-.26-.2-.42-.24-.16-.05-.35-.08-.55-.08h-.2v3Z" fill="#576278" stroke-width="0"></path><path d="m88.34,42.7v-4.72h1.61c.25,0,.47.02.69.05.21.04.39.1.55.19.16.09.28.21.37.36.09.15.14.34.14.57,0,.1-.01.21-.04.31-.03.11-.07.21-.13.3-.05.09-.12.17-.19.25-.08.07-.16.12-.26.15v.03c.12.03.23.07.33.14.1.06.19.13.27.23.08.09.14.2.19.32.04.12.07.27.07.42,0,.24-.05.45-.14.63-.09.17-.22.32-.39.43-.17.11-.36.19-.58.25-.22.06-.46.08-.72.08h-1.75Zm1.06-2.83h.5c.26,0,.45-.05.57-.15.12-.1.18-.24.18-.41,0-.18-.06-.31-.19-.39-.12-.08-.3-.12-.55-.12h-.51v1.06h0Zm0,2h.6c.58,0,.87-.21.87-.64,0-.21-.07-.35-.22-.44-.14-.09-.36-.14-.65-.14h-.6v1.21h0Z" fill="#576278" stroke-width="0"></path><path d="m94.01,42.79c-.31,0-.62-.06-.93-.17-.31-.11-.58-.29-.81-.51l.61-.73c.17.15.35.27.56.36.21.09.41.14.61.14.22,0,.39-.04.49-.12.11-.08.17-.2.17-.34,0-.07-.02-.13-.05-.19-.03-.05-.08-.1-.14-.14-.06-.04-.13-.08-.21-.11-.08-.04-.18-.08-.28-.13l-.61-.26c-.12-.05-.24-.11-.36-.19-.11-.07-.21-.16-.3-.27-.09-.11-.16-.23-.21-.36-.05-.14-.08-.29-.08-.47,0-.19.04-.38.13-.55.08-.17.2-.32.35-.45.15-.13.33-.23.54-.3.21-.07.43-.11.68-.11.27,0,.54.05.81.16.27.1.51.26.71.47l-.54.67c-.15-.12-.31-.22-.47-.28-.15-.07-.33-.1-.51-.1s-.33.04-.44.11c-.11.08-.16.18-.16.31,0,.08.02.14.05.19.04.05.09.09.15.14.07.04.14.08.23.11.09.04.18.08.29.12l.61.24c.29.12.52.28.69.48s.25.47.25.8c0,.2-.04.39-.12.57-.08.17-.2.33-.35.46-.15.13-.34.24-.56.32-.22.08-.47.12-.75.12h0Z" fill="#576278" stroke-width="0"></path><path d="m84.3,61.75v-4.72h1.7c.25,0,.48.02.7.07.22.05.41.13.58.24.16.11.29.26.39.45.1.19.15.42.15.7,0,.35-.08.63-.23.86-.15.22-.35.39-.61.5l1.07,1.89h-1.2l-.9-1.7h-.58v1.7h-1.06,0Zm1.06-2.55h.55c.28,0,.49-.06.64-.18.15-.12.22-.29.22-.52s-.07-.4-.22-.49c-.15-.09-.36-.14-.64-.14h-.55v1.33h0Z" fill="#576278" stroke-width="0"></path><path d="m88.59,61.75v-4.72h1.06v4.72h-1.06Z" fill="#576278" stroke-width="0"></path><path d="m92.69,61.84c-.32,0-.63-.05-.91-.15-.28-.11-.53-.26-.73-.47s-.37-.45-.49-.76c-.12-.3-.18-.65-.18-1.05s.06-.73.18-1.04c.12-.31.29-.57.5-.78.21-.21.45-.38.73-.49.28-.11.58-.17.89-.17.34,0,.63.06.88.19.25.12.45.27.6.42l-.55.69c-.12-.11-.25-.2-.39-.27-.13-.07-.3-.11-.51-.11-.18,0-.35.04-.51.11-.15.07-.28.17-.39.3-.11.13-.2.29-.26.48-.06.19-.09.4-.09.64,0,.49.11.87.33,1.14.22.27.55.4.99.4.1,0,.19-.01.29-.04.09-.02.17-.06.23-.11v-.81h-.78v-.87h1.72v2.17c-.17.16-.39.3-.65.41-.27.11-.57.17-.9.17h0Z" fill="#576278" stroke-width="0"></path><path d="m95.07,61.75v-4.72h1.06v1.81h1.62v-1.81h1.08v4.72h-1.08v-1.97h-1.62v1.97h-1.06Z" fill="#576278" stroke-width="0"></path><path d="m100.71,61.75v-3.82h-1.3v-.89h3.66v.89h-1.3v3.82h-1.07,0Z" fill="#576278" stroke-width="0"></path><path d="m105.88,61.75v-3.82h-1.3v-.89h3.66v.89h-1.3v3.82h-1.07,0Z" fill="#576278" stroke-width="0"></path><path d="m110.75,61.84c-.32,0-.61-.06-.87-.17-.26-.11-.49-.28-.68-.49-.19-.21-.33-.47-.43-.77-.1-.31-.15-.65-.15-1.04s.05-.73.15-1.04c.1-.3.25-.55.43-.76.19-.21.42-.36.68-.47.27-.11.56-.17.87-.17s.61.06.87.17c.26.11.49.27.67.47.19.21.34.46.44.76.1.3.15.65.15,1.03s-.05.73-.15,1.04c-.1.3-.25.56-.44.77-.19.21-.41.37-.67.49-.26.11-.55.17-.87.17h0Zm0-.92c.33,0,.58-.14.77-.42.19-.28.29-.65.29-1.13s-.09-.84-.29-1.11c-.19-.27-.44-.4-.77-.4s-.58.13-.77.4c-.19.27-.28.64-.28,1.11s.09.85.28,1.13c.19.28.45.42.77.42Z" fill="#576278" stroke-width="0"></path><path d="m114.93,61.75v-4.72h1.7c.25,0,.48.02.7.07.22.05.41.13.58.24.16.11.29.26.39.45.1.19.15.42.15.7,0,.35-.08.63-.23.86-.15.22-.35.39-.61.5l1.07,1.89h-1.2l-.9-1.7h-.58v1.7h-1.06,0Zm1.06-2.55h.55c.28,0,.49-.06.64-.18.15-.12.22-.29.22-.52s-.07-.4-.22-.49c-.15-.09-.36-.14-.64-.14h-.55v1.33h0Z" fill="#576278" stroke-width="0"></path><path d="m119.21,61.75v-4.72h2.95v.89h-1.88v.95h1.61v.89h-1.61v1.08h1.96v.9h-3.02Z" fill="#576278" stroke-width="0"></path><path d="m123.02,61.75v-4.72h1.09l1.23,2.34.47,1.04h.03c-.02-.25-.05-.53-.08-.84-.03-.31-.05-.6-.05-.88v-1.66h1.02v4.72h-1.09l-1.23-2.35-.47-1.02h-.03c.02.26.05.54.08.84.03.3.05.59.05.87v1.67h-1.01Z" fill="#576278" stroke-width="0"></path><path d="m128.6,61.75v-3.82h-1.3v-.89h3.66v.89h-1.3v3.82h-1.07,0Z" fill="#576278" stroke-width="0"></path><line x1="84.02" y1="30.39" x2="95.44" y2="30.39" fill="none" stroke="#576278" stroke-miterlimit="10" stroke-width=".5"></line><line x1="84.02" y1="49.51" x2="95.44" y2="49.51" fill="none" stroke="#576278" stroke-miterlimit="10" stroke-width=".5"></line></g></svg> 