<svg id="svg" version="1.1" xmlns="http://www.w3.org/2000/svg" xmlns:xlink="http://www.w3.org/1999/xlink" width="400" height="93.81443298969073" viewBox="0, 0, 400,93.81443298969073"><g id="svgg"><path id="path0" d="M40.583 0.180 C 39.758 0.255,38.858 0.389,38.583 0.478 C 38.308 0.567,37.615 0.691,37.042 0.753 C 36.469 0.815,36.000 0.925,36.000 0.998 C 36.000 1.071,35.756 1.172,35.458 1.223 C 34.395 1.406,33.021 1.757,32.900 1.878 C 32.833 1.945,32.659 2.000,32.514 2.001 C 32.369 2.002,32.049 2.107,31.803 2.235 C 31.557 2.364,31.107 2.522,30.803 2.587 C 30.499 2.652,30.175 2.763,30.083 2.833 C 29.992 2.904,29.673 3.014,29.375 3.077 C 29.077 3.141,28.833 3.262,28.833 3.347 C 28.833 3.431,28.682 3.500,28.497 3.500 C 28.312 3.500,27.739 3.725,27.223 4.000 C 26.708 4.275,26.184 4.500,26.060 4.500 C 25.935 4.500,25.833 4.575,25.833 4.667 C 25.833 4.758,25.726 4.833,25.595 4.833 C 25.464 4.833,25.254 4.937,25.127 5.063 C 25.001 5.189,24.658 5.345,24.366 5.410 C 24.073 5.474,23.833 5.590,23.833 5.668 C 23.833 5.745,23.590 5.930,23.292 6.078 C 22.327 6.556,21.000 7.400,21.000 7.535 C 21.000 7.608,20.899 7.667,20.776 7.667 C 20.653 7.667,20.418 7.815,20.254 7.996 C 20.090 8.177,19.890 8.285,19.810 8.236 C 19.730 8.186,19.619 8.263,19.564 8.406 C 19.509 8.549,19.392 8.667,19.304 8.667 C 19.115 8.667,17.275 10.136,17.194 10.352 C 17.164 10.433,17.041 10.500,16.921 10.500 C 16.800 10.500,16.242 10.950,15.680 11.500 C 15.118 12.050,14.581 12.500,14.486 12.500 C 14.391 12.500,14.360 12.575,14.417 12.667 C 14.473 12.758,14.421 12.834,14.302 12.835 C 14.182 12.836,13.654 13.305,13.130 13.877 C 11.024 16.172,10.667 16.581,10.667 16.692 C 10.667 16.756,10.459 17.020,10.206 17.279 C 9.514 17.986,8.667 19.107,8.667 19.316 C 8.667 19.417,8.602 19.500,8.524 19.500 C 8.340 19.500,7.167 21.303,7.167 21.584 C 7.167 21.702,7.056 21.840,6.921 21.892 C 6.786 21.944,6.543 22.246,6.380 22.563 C 5.467 24.343,5.240 24.758,5.138 24.835 C 5.077 24.882,4.975 25.126,4.912 25.377 C 4.849 25.628,4.738 25.833,4.667 25.833 C 4.595 25.833,4.486 26.035,4.424 26.282 C 4.362 26.528,4.166 26.933,3.989 27.182 C 3.812 27.431,3.664 27.736,3.661 27.859 C 3.658 27.982,3.510 28.383,3.333 28.750 C 3.156 29.117,3.009 29.548,3.006 29.708 C 3.003 29.869,2.926 30.000,2.835 30.000 C 2.745 30.000,2.623 30.300,2.564 30.667 C 2.505 31.033,2.400 31.333,2.331 31.333 C 2.261 31.333,2.154 31.669,2.093 32.079 C 2.031 32.490,1.915 32.866,1.835 32.915 C 1.755 32.965,1.639 33.416,1.576 33.917 C 1.513 34.419,1.396 34.788,1.314 34.738 C 1.233 34.688,1.167 34.909,1.167 35.230 C 1.167 35.551,1.098 35.856,1.013 35.909 C 0.929 35.961,0.807 36.509,0.743 37.127 C 0.679 37.745,0.569 38.325,0.498 38.417 C -0.120 39.224,-0.158 53.856,0.455 55.333 C 0.577 55.627,0.975 57.479,1.108 58.375 C 1.160 58.719,1.262 59.000,1.335 59.000 C 1.409 59.000,1.520 59.375,1.583 59.833 C 1.646 60.292,1.756 60.667,1.828 60.667 C 1.899 60.667,2.007 61.042,2.068 61.500 C 2.128 61.958,2.241 62.333,2.318 62.333 C 2.395 62.333,2.505 62.633,2.564 63.000 C 2.623 63.367,2.735 63.667,2.814 63.667 C 2.893 63.667,3.005 63.967,3.064 64.333 C 3.123 64.700,3.239 65.000,3.322 65.000 C 3.405 65.000,3.523 65.224,3.583 65.498 C 3.643 65.772,3.762 66.039,3.846 66.091 C 3.931 66.144,4.000 66.332,4.000 66.510 C 4.000 66.688,4.069 66.833,4.153 66.833 C 4.238 66.833,4.356 67.058,4.417 67.333 C 4.477 67.608,4.590 67.833,4.667 67.833 C 4.744 67.833,4.856 68.058,4.917 68.333 C 4.977 68.608,5.090 68.833,5.167 68.833 C 5.244 68.833,5.356 69.058,5.417 69.333 C 5.477 69.608,5.587 69.833,5.662 69.833 C 5.736 69.833,5.844 70.021,5.902 70.250 C 5.959 70.479,6.080 70.667,6.170 70.667 C 6.260 70.667,6.333 70.768,6.333 70.892 C 6.333 71.016,6.521 71.320,6.750 71.568 C 6.979 71.815,7.167 72.128,7.167 72.264 C 7.167 72.399,7.279 72.554,7.417 72.606 C 7.554 72.659,7.667 72.795,7.667 72.909 C 7.667 73.091,7.824 73.320,8.497 74.118 C 8.590 74.229,8.667 74.383,8.667 74.461 C 8.667 74.619,9.302 75.419,10.125 76.300 C 10.423 76.619,10.667 76.935,10.667 77.002 C 10.667 77.229,13.082 79.730,15.775 82.292 C 16.184 82.681,16.584 83.000,16.664 83.000 C 16.743 83.000,17.033 83.225,17.308 83.500 C 17.583 83.775,17.857 84.000,17.917 84.000 C 17.977 84.000,18.251 84.225,18.526 84.500 C 18.801 84.775,19.132 85.000,19.263 85.000 C 19.393 85.000,19.500 85.077,19.500 85.171 C 19.500 85.265,19.669 85.415,19.875 85.504 C 20.282 85.680,20.867 86.028,21.000 86.175 C 21.196 86.390,22.147 86.991,22.958 87.413 C 23.440 87.663,23.833 87.929,23.833 88.004 C 23.833 88.079,24.073 88.193,24.366 88.257 C 24.658 88.321,25.001 88.477,25.127 88.604 C 25.254 88.730,25.464 88.833,25.595 88.833 C 25.726 88.833,25.833 88.908,25.833 89.000 C 25.833 89.092,25.935 89.167,26.060 89.167 C 26.184 89.167,26.708 89.392,27.223 89.667 C 27.739 89.942,28.312 90.167,28.497 90.167 C 28.682 90.167,28.833 90.236,28.833 90.320 C 28.833 90.404,29.077 90.526,29.375 90.589 C 29.673 90.653,29.992 90.763,30.083 90.833 C 30.175 90.904,30.499 91.015,30.803 91.080 C 31.107 91.145,31.557 91.303,31.803 91.431 C 32.049 91.560,32.377 91.665,32.532 91.666 C 32.687 91.666,32.855 91.733,32.905 91.814 C 32.955 91.895,33.409 92.013,33.914 92.076 C 34.420 92.139,34.833 92.260,34.833 92.345 C 34.833 92.430,35.043 92.500,35.300 92.500 C 35.557 92.500,35.838 92.568,35.925 92.651 C 36.012 92.734,36.646 92.886,37.333 92.989 C 38.021 93.093,38.958 93.251,39.417 93.342 C 41.757 93.807,54.784 93.670,55.416 93.175 C 55.508 93.103,55.921 93.002,56.333 92.950 C 56.746 92.899,57.271 92.808,57.500 92.747 C 57.729 92.687,58.104 92.596,58.333 92.546 C 58.563 92.496,58.827 92.395,58.921 92.322 C 59.015 92.248,59.482 92.136,59.959 92.073 C 60.437 92.010,60.792 91.901,60.749 91.831 C 60.706 91.762,61.082 91.653,61.585 91.590 C 62.088 91.527,62.500 91.407,62.500 91.323 C 62.500 91.239,62.800 91.123,63.167 91.064 C 63.533 91.005,63.833 90.895,63.833 90.820 C 63.833 90.744,64.096 90.633,64.417 90.572 C 64.737 90.512,65.000 90.396,65.000 90.315 C 65.000 90.233,65.130 90.167,65.289 90.167 C 65.581 90.167,67.679 89.194,67.833 88.987 C 67.879 88.926,68.160 88.822,68.458 88.758 C 68.756 88.693,69.000 88.577,69.000 88.500 C 69.000 88.423,69.219 88.312,69.486 88.253 C 69.753 88.194,70.014 88.038,70.064 87.906 C 70.115 87.775,70.271 87.667,70.411 87.667 C 70.552 87.667,70.667 87.592,70.667 87.500 C 70.667 87.408,70.775 87.333,70.908 87.333 C 71.165 87.333,72.712 86.354,72.806 86.132 C 72.836 86.059,72.970 86.000,73.102 86.000 C 73.235 86.000,73.387 85.887,73.440 85.750 C 73.492 85.612,73.629 85.500,73.742 85.500 C 73.856 85.500,74.122 85.350,74.333 85.167 C 74.545 84.983,74.785 84.833,74.867 84.833 C 74.949 84.833,75.190 84.646,75.402 84.417 C 75.614 84.187,75.839 84.000,75.902 84.000 C 75.965 84.000,76.181 83.823,76.383 83.606 C 76.585 83.390,76.915 83.161,77.116 83.098 C 77.669 82.925,77.858 80.703,77.352 80.333 C 77.248 80.257,76.963 79.165,76.721 77.917 C 76.668 77.642,76.564 77.340,76.490 77.246 C 76.416 77.152,76.303 76.683,76.239 76.204 C 76.176 75.725,76.064 75.333,75.991 75.333 C 75.917 75.333,75.806 74.921,75.743 74.417 C 75.680 73.913,75.569 73.500,75.497 73.500 C 75.425 73.500,75.314 73.050,75.250 72.500 C 75.186 71.950,75.075 71.500,75.003 71.500 C 74.931 71.500,74.820 71.088,74.757 70.583 C 74.694 70.079,74.587 69.667,74.520 69.667 C 74.452 69.667,74.305 69.198,74.194 68.625 C 73.845 66.832,73.799 66.667,73.656 66.667 C 73.579 66.667,73.466 66.217,73.403 65.667 C 73.341 65.117,73.232 64.667,73.162 64.667 C 73.091 64.667,72.981 64.217,72.917 63.667 C 72.853 63.117,72.740 62.667,72.667 62.667 C 72.593 62.667,72.453 62.273,72.356 61.792 C 72.258 61.310,72.087 60.467,71.975 59.917 C 71.863 59.367,71.719 58.879,71.656 58.833 C 71.592 58.788,71.487 58.356,71.421 57.875 C 71.356 57.394,71.234 56.958,71.151 56.907 C 71.068 56.856,71.000 56.631,71.000 56.407 C 71.000 56.183,70.932 56.000,70.850 56.000 C 70.767 56.000,70.647 55.550,70.583 55.000 C 70.519 54.450,70.400 54.000,70.317 54.000 C 70.234 54.000,70.167 53.732,70.167 53.404 C 70.167 52.660,69.616 52.636,69.531 53.376 C 69.502 53.628,69.417 53.833,69.344 53.833 C 69.270 53.833,69.161 54.133,69.103 54.500 C 69.044 54.867,68.929 55.167,68.846 55.167 C 68.763 55.167,68.645 55.467,68.583 55.833 C 68.521 56.200,68.408 56.500,68.332 56.500 C 68.256 56.500,68.144 56.725,68.083 57.000 C 68.023 57.275,67.904 57.500,67.820 57.500 C 67.736 57.500,67.667 57.612,67.667 57.750 C 67.667 57.887,67.587 58.000,67.490 58.000 C 67.393 58.000,67.353 58.064,67.401 58.141 C 67.449 58.219,67.360 58.428,67.203 58.604 C 67.045 58.781,66.769 59.214,66.588 59.566 C 66.408 59.917,66.164 60.242,66.048 60.287 C 65.931 60.332,65.871 60.426,65.915 60.497 C 65.959 60.568,65.733 60.903,65.414 61.241 C 65.095 61.580,64.833 61.890,64.833 61.931 C 64.833 62.198,60.926 65.781,60.480 65.923 C 60.308 65.978,60.167 66.092,60.167 66.178 C 60.167 66.263,60.052 66.333,59.911 66.333 C 59.771 66.333,59.613 66.446,59.560 66.583 C 59.508 66.721,59.353 66.833,59.217 66.833 C 59.081 66.833,58.779 66.983,58.545 67.167 C 58.312 67.350,58.019 67.500,57.894 67.500 C 57.769 67.500,57.667 67.575,57.667 67.667 C 57.667 67.758,57.588 67.833,57.491 67.833 C 57.293 67.833,56.083 68.346,55.096 68.848 C 54.736 69.031,54.117 69.226,53.721 69.280 C 53.324 69.334,53.000 69.436,53.000 69.506 C 53.000 69.576,52.531 69.688,51.958 69.754 C 51.385 69.820,50.874 69.941,50.821 70.023 C 50.672 70.259,45.568 70.389,44.250 70.190 C 41.769 69.817,40.906 69.652,40.632 69.499 C 40.476 69.411,40.045 69.291,39.674 69.232 C 39.303 69.173,39.000 69.059,39.000 68.979 C 39.000 68.899,38.854 68.833,38.677 68.833 C 38.499 68.833,38.310 68.764,38.258 68.679 C 38.206 68.595,37.939 68.476,37.665 68.416 C 37.391 68.356,37.167 68.244,37.167 68.167 C 37.167 68.090,36.942 67.977,36.667 67.917 C 36.392 67.856,36.167 67.744,36.167 67.667 C 36.167 67.590,35.942 67.477,35.667 67.417 C 35.392 67.356,35.167 67.239,35.167 67.157 C 35.167 67.074,34.979 66.959,34.750 66.902 C 34.521 66.844,34.333 66.730,34.333 66.649 C 34.333 66.567,34.218 66.500,34.078 66.500 C 33.938 66.500,33.780 66.387,33.727 66.250 C 33.674 66.112,33.555 66.000,33.463 66.000 C 33.230 66.000,30.856 64.015,30.195 63.268 C 30.042 63.095,29.598 62.637,29.208 62.250 C 28.819 61.863,28.500 61.461,28.500 61.357 C 28.500 61.252,28.440 61.167,28.367 61.167 C 28.294 61.167,28.050 60.869,27.825 60.504 C 27.600 60.140,27.369 59.840,27.310 59.838 C 27.251 59.835,27.156 59.646,27.098 59.417 C 27.041 59.188,26.920 59.000,26.830 59.000 C 26.740 59.000,26.667 58.920,26.667 58.821 C 26.667 58.723,26.573 58.538,26.458 58.411 C 25.941 57.834,25.833 57.665,25.833 57.429 C 25.833 57.212,25.511 56.459,24.998 55.479 C 24.920 55.330,24.805 54.936,24.743 54.604 C 24.681 54.272,24.568 54.000,24.493 54.000 C 24.419 54.000,24.306 53.588,24.243 53.083 C 24.180 52.579,24.062 52.167,23.981 52.167 C 23.900 52.167,23.833 51.873,23.833 51.514 C 23.833 51.140,23.744 50.831,23.625 50.792 C 23.325 50.692,23.325 43.109,23.625 42.808 C 23.740 42.694,23.833 42.357,23.833 42.060 C 23.833 41.763,23.903 41.477,23.988 41.424 C 24.074 41.371,24.195 40.917,24.258 40.414 C 24.320 39.911,24.432 39.500,24.505 39.500 C 24.578 39.500,24.688 39.200,24.750 38.833 C 24.812 38.467,24.928 38.167,25.007 38.167 C 25.087 38.167,25.201 37.904,25.261 37.583 C 25.321 37.262,25.428 37.000,25.498 37.000 C 25.568 37.000,25.671 36.771,25.727 36.490 C 25.783 36.210,25.924 35.875,26.039 35.746 C 26.428 35.314,26.581 35.087,26.913 34.458 C 27.094 34.115,27.300 33.833,27.371 33.833 C 27.442 33.833,27.500 33.720,27.500 33.582 C 27.500 33.443,27.650 33.202,27.833 33.045 C 28.017 32.888,28.167 32.700,28.167 32.628 C 28.167 32.556,28.476 32.168,28.853 31.767 C 29.231 31.366,29.532 30.993,29.523 30.938 C 29.504 30.829,30.631 29.667,30.756 29.667 C 30.798 29.667,30.975 29.535,31.147 29.375 C 31.320 29.215,31.778 28.821,32.167 28.500 C 32.555 28.179,33.014 27.785,33.186 27.625 C 33.359 27.465,33.570 27.333,33.655 27.333 C 33.740 27.333,33.909 27.238,34.030 27.123 C 34.151 27.007,34.625 26.725,35.083 26.498 C 35.542 26.270,35.955 26.033,36.002 25.972 C 36.048 25.910,36.292 25.808,36.543 25.745 C 36.795 25.682,37.000 25.572,37.000 25.501 C 37.000 25.430,37.169 25.317,37.375 25.250 C 37.581 25.183,37.787 25.112,37.833 25.091 C 37.879 25.071,38.067 24.997,38.250 24.926 C 38.433 24.855,38.820 24.693,39.109 24.565 C 39.397 24.438,39.791 24.333,39.984 24.333 C 40.176 24.333,40.333 24.267,40.333 24.186 C 40.333 24.105,40.765 23.985,41.292 23.920 C 41.819 23.855,42.355 23.715,42.484 23.609 C 42.845 23.312,50.965 23.340,51.150 23.639 C 51.225 23.762,51.336 23.850,51.395 23.836 C 51.671 23.769,53.333 24.053,53.333 24.167 C 53.333 24.238,53.671 24.346,54.083 24.408 C 54.496 24.470,54.833 24.591,54.833 24.677 C 54.833 24.763,54.965 24.836,55.125 24.839 C 55.285 24.842,55.562 24.954,55.740 25.089 C 55.918 25.223,56.199 25.333,56.365 25.333 C 56.531 25.333,56.667 25.408,56.667 25.500 C 56.667 25.592,56.811 25.667,56.988 25.667 C 57.165 25.667,57.418 25.775,57.551 25.908 C 57.684 26.041,57.990 26.200,58.230 26.260 C 58.470 26.320,58.667 26.419,58.667 26.480 C 58.667 26.541,59.004 26.775,59.417 27.000 C 59.829 27.225,60.167 27.462,60.167 27.527 C 60.167 27.591,60.303 27.688,60.470 27.741 C 61.234 27.983,65.516 32.261,65.758 33.024 C 65.812 33.194,65.926 33.333,66.011 33.333 C 66.097 33.333,66.167 33.411,66.167 33.507 C 66.167 33.704,66.852 34.721,67.042 34.806 C 67.110 34.836,67.167 34.940,67.167 35.036 C 67.167 35.132,67.335 35.482,67.541 35.814 C 67.746 36.145,67.925 36.454,67.938 36.500 C 68.092 37.048,68.229 37.333,68.338 37.333 C 68.411 37.333,68.521 37.633,68.583 38.000 C 68.645 38.367,68.758 38.667,68.833 38.667 C 68.909 38.667,69.021 38.967,69.083 39.333 C 69.145 39.700,69.264 40.000,69.348 40.000 C 69.432 40.000,69.486 40.056,69.469 40.125 C 69.451 40.194,69.503 40.587,69.583 41.000 C 69.664 41.412,69.715 41.806,69.698 41.875 C 69.681 41.944,69.736 42.000,69.821 42.000 C 69.906 42.000,70.028 42.412,70.091 42.917 C 70.154 43.421,70.271 43.833,70.353 43.833 C 70.434 43.833,70.500 44.054,70.500 44.323 C 70.500 44.593,70.572 44.858,70.659 44.912 C 70.747 44.966,70.779 45.113,70.731 45.238 C 70.683 45.364,70.724 45.516,70.822 45.576 C 70.920 45.637,71.000 45.907,71.000 46.177 C 71.000 46.446,71.068 46.667,71.150 46.667 C 71.233 46.667,71.353 47.117,71.417 47.667 C 71.481 48.217,71.593 48.667,71.667 48.667 C 71.741 48.667,71.854 49.042,71.917 49.500 C 71.980 49.958,72.092 50.370,72.166 50.416 C 72.240 50.462,72.353 50.950,72.417 51.500 C 72.480 52.050,72.590 52.500,72.660 52.500 C 72.731 52.500,72.836 52.849,72.894 53.275 C 72.953 53.701,73.066 54.132,73.146 54.233 C 73.226 54.334,73.333 54.642,73.384 54.917 C 73.588 56.027,73.855 57.098,73.986 57.340 C 74.063 57.481,74.179 57.987,74.245 58.465 C 74.311 58.943,74.425 59.333,74.499 59.333 C 74.573 59.333,74.686 59.783,74.750 60.333 C 74.814 60.883,74.926 61.333,75.000 61.333 C 75.074 61.333,75.186 61.783,75.250 62.333 C 75.314 62.883,75.421 63.333,75.488 63.333 C 75.596 63.333,75.698 63.722,76.109 65.708 C 76.162 65.960,76.262 66.167,76.333 66.167 C 76.403 66.167,76.513 66.654,76.577 67.250 C 76.641 67.846,76.755 68.333,76.831 68.333 C 76.907 68.333,77.022 68.727,77.086 69.208 C 77.151 69.690,77.262 70.158,77.333 70.250 C 77.404 70.342,77.517 70.754,77.583 71.167 C 77.650 71.579,77.762 71.992,77.834 72.083 C 77.905 72.175,78.016 72.644,78.080 73.125 C 78.145 73.606,78.257 74.036,78.329 74.081 C 78.402 74.126,78.513 74.575,78.576 75.079 C 78.638 75.582,78.760 76.038,78.845 76.091 C 78.930 76.143,79.000 76.369,79.000 76.593 C 79.000 76.817,79.065 77.000,79.143 77.000 C 79.261 77.000,79.474 78.048,79.540 78.958 C 79.549 79.073,79.612 79.167,79.681 79.167 C 79.750 79.167,79.859 79.654,79.923 80.250 C 79.987 80.846,80.096 81.333,80.167 81.333 C 80.288 81.333,80.595 83.095,80.525 83.387 C 80.507 83.463,80.558 83.484,80.640 83.433 C 80.722 83.383,80.837 83.755,80.896 84.260 C 80.956 84.765,81.074 85.307,81.159 85.464 C 81.342 85.803,81.568 86.691,81.522 86.891 C 81.485 87.049,81.844 88.162,82.014 88.417 C 82.075 88.508,82.178 89.013,82.241 89.539 C 82.305 90.065,82.418 90.532,82.492 90.579 C 82.567 90.625,82.679 91.075,82.742 91.579 C 82.805 92.082,82.926 92.538,83.012 92.591 C 83.097 92.643,83.167 92.861,83.167 93.075 C 83.167 93.289,83.285 93.510,83.430 93.566 C 83.995 93.782,107.127 93.678,107.210 93.458 C 107.302 93.219,107.119 92.476,104.728 83.333 C 104.405 82.096,103.879 80.071,103.560 78.833 C 103.240 77.596,102.783 75.833,102.544 74.917 C 102.304 74.000,102.093 72.738,102.074 72.112 C 102.056 71.486,101.956 70.889,101.853 70.787 C 101.751 70.684,101.667 70.394,101.667 70.143 C 101.667 69.892,101.599 69.644,101.516 69.593 C 101.433 69.542,101.313 69.125,101.250 68.667 C 101.187 68.209,101.076 67.797,101.004 67.752 C 100.931 67.708,100.821 67.258,100.757 66.752 C 100.694 66.247,100.579 65.833,100.501 65.833 C 100.423 65.833,100.308 65.346,100.244 64.750 C 100.180 64.154,100.062 63.667,99.981 63.667 C 99.900 63.667,99.833 63.489,99.833 63.271 C 99.833 63.053,99.730 62.583,99.604 62.226 C 99.478 61.869,99.321 61.184,99.255 60.705 C 99.189 60.226,99.067 59.792,98.984 59.740 C 98.901 59.689,98.833 59.464,98.833 59.240 C 98.833 59.016,98.766 58.833,98.683 58.833 C 98.600 58.833,98.480 58.383,98.417 57.833 C 98.353 57.283,98.238 56.794,98.162 56.747 C 98.086 56.700,97.970 56.231,97.906 55.706 C 97.841 55.180,97.736 54.712,97.671 54.667 C 97.607 54.621,97.472 54.208,97.371 53.750 C 96.948 51.828,96.806 51.237,96.710 51.000 C 96.655 50.862,96.516 50.375,96.403 49.917 C 96.290 49.458,96.110 48.783,96.003 48.417 C 95.896 48.050,95.730 47.337,95.634 46.833 C 95.538 46.329,95.402 45.842,95.332 45.750 C 95.262 45.658,95.150 45.246,95.083 44.833 C 95.017 44.421,94.904 44.008,94.833 43.917 C 94.762 43.825,94.651 43.356,94.586 42.875 C 94.522 42.394,94.410 41.964,94.337 41.919 C 94.265 41.874,94.154 41.425,94.091 40.921 C 94.028 40.418,93.912 39.965,93.833 39.917 C 93.754 39.868,93.639 39.417,93.576 38.914 C 93.513 38.411,93.395 38.000,93.314 38.000 C 93.233 38.000,93.167 37.775,93.167 37.500 C 93.167 37.225,93.098 37.000,93.013 37.000 C 92.929 37.000,92.808 36.512,92.744 35.917 C 92.680 35.321,92.569 34.833,92.496 34.833 C 92.424 34.833,92.313 34.458,92.250 34.000 C 92.187 33.542,92.072 33.128,91.994 33.080 C 91.916 33.032,91.802 32.656,91.741 32.246 C 91.679 31.836,91.566 31.500,91.489 31.500 C 91.412 31.500,91.299 31.237,91.239 30.915 C 91.178 30.593,91.062 30.289,90.981 30.238 C 90.900 30.188,90.832 30.020,90.830 29.865 C 90.828 29.710,90.604 29.133,90.333 28.583 C 90.062 28.033,89.839 27.490,89.837 27.375 C 89.835 27.260,89.758 27.167,89.667 27.167 C 89.575 27.167,89.500 27.081,89.500 26.977 C 89.500 26.724,88.784 25.265,88.625 25.194 C 88.556 25.164,88.500 25.025,88.500 24.887 C 88.500 24.603,87.984 23.613,87.792 23.528 C 87.723 23.497,87.667 23.364,87.667 23.231 C 87.667 23.098,87.559 22.948,87.427 22.898 C 87.295 22.847,87.139 22.587,87.080 22.319 C 87.022 22.052,86.910 21.833,86.831 21.833 C 86.753 21.833,86.637 21.668,86.573 21.466 C 86.508 21.264,86.372 21.011,86.270 20.903 C 86.167 20.796,85.971 20.539,85.833 20.334 C 85.696 20.129,85.358 19.658,85.083 19.289 C 84.808 18.920,84.472 18.460,84.336 18.267 C 84.200 18.074,83.994 17.857,83.878 17.783 C 83.762 17.710,83.667 17.570,83.667 17.472 C 83.667 17.374,83.367 17.003,83.000 16.647 C 82.633 16.292,82.333 15.960,82.333 15.910 C 82.333 15.728,79.391 12.666,79.300 12.754 C 79.273 12.781,79.063 12.549,78.833 12.239 C 78.604 11.929,78.342 11.673,78.250 11.669 C 78.158 11.666,77.773 11.382,77.393 11.040 C 76.045 9.823,75.422 9.313,74.881 8.978 C 74.580 8.792,74.333 8.579,74.333 8.504 C 74.333 8.430,74.146 8.322,73.917 8.265 C 73.688 8.207,73.500 8.087,73.500 7.997 C 73.500 7.907,73.385 7.833,73.245 7.833 C 73.104 7.833,72.949 7.728,72.899 7.598 C 72.850 7.469,72.627 7.318,72.405 7.262 C 72.182 7.206,72.000 7.087,72.000 6.997 C 72.000 6.907,71.887 6.833,71.750 6.833 C 71.612 6.833,71.500 6.760,71.500 6.670 C 71.500 6.580,71.313 6.459,71.083 6.402 C 70.854 6.344,70.667 6.230,70.667 6.149 C 70.667 6.067,70.581 6.000,70.477 6.000 C 70.372 6.000,69.924 5.777,69.481 5.504 C 69.038 5.232,68.486 4.961,68.254 4.903 C 68.023 4.845,67.833 4.730,67.833 4.649 C 67.833 4.567,67.751 4.500,67.650 4.500 C 67.427 4.500,66.283 3.978,66.167 3.823 C 66.121 3.762,65.896 3.659,65.667 3.594 C 65.286 3.487,64.528 3.169,63.794 2.809 C 63.635 2.731,63.410 2.666,63.294 2.666 C 63.178 2.665,62.889 2.563,62.651 2.439 C 62.413 2.315,61.935 2.160,61.589 2.095 C 61.242 2.030,60.837 1.912,60.688 1.833 C 60.369 1.664,59.144 1.337,58.375 1.216 C 58.077 1.169,57.833 1.069,57.833 0.995 C 57.833 0.921,57.327 0.806,56.708 0.741 C 56.090 0.676,55.546 0.566,55.500 0.497 C 55.221 0.078,44.289 -0.154,40.583 0.180 " stroke="none" fill="#04ab0c" fill-rule="evenodd"></path><path id="path1" d="M258.000 4.797 C 257.587 4.937,257.225 5.115,257.194 5.193 C 257.164 5.270,256.993 5.333,256.814 5.333 C 256.636 5.333,256.446 5.446,256.394 5.583 C 256.341 5.721,256.197 5.833,256.074 5.833 C 255.799 5.833,254.835 6.838,254.834 7.125 C 254.834 7.240,254.760 7.333,254.670 7.333 C 254.580 7.333,254.459 7.521,254.402 7.750 C 254.344 7.979,254.249 8.167,254.189 8.167 C 253.673 8.167,253.264 13.120,253.752 13.464 C 253.844 13.530,254.069 13.883,254.252 14.250 C 254.728 15.207,256.598 17.020,257.346 17.250 C 257.568 17.318,257.855 17.459,257.984 17.562 C 258.326 17.837,262.366 17.818,262.458 17.542 C 262.497 17.427,262.694 17.333,262.898 17.333 C 263.473 17.333,265.833 15.453,265.833 14.994 C 265.833 14.906,265.900 14.833,265.982 14.833 C 266.064 14.833,266.182 14.628,266.245 14.377 C 266.308 14.126,266.448 13.866,266.555 13.799 C 266.689 13.716,266.750 12.926,266.750 11.250 C 266.750 9.575,266.689 8.784,266.555 8.701 C 266.448 8.634,266.308 8.374,266.245 8.123 C 266.182 7.872,266.080 7.667,266.018 7.667 C 265.956 7.667,265.762 7.425,265.588 7.130 C 265.208 6.486,264.531 5.833,264.243 5.833 C 264.129 5.833,263.992 5.721,263.940 5.583 C 263.887 5.446,263.729 5.333,263.589 5.333 C 263.448 5.333,263.333 5.267,263.333 5.186 C 263.333 5.104,262.998 4.987,262.587 4.926 C 262.177 4.864,261.797 4.743,261.744 4.657 C 261.592 4.410,258.834 4.513,258.000 4.797 M379.908 24.681 C 379.856 24.765,379.518 24.833,379.157 24.833 C 378.796 24.833,378.500 24.900,378.500 24.981 C 378.500 25.062,378.162 25.179,377.750 25.241 C 377.337 25.303,377.000 25.415,377.000 25.489 C 377.000 25.563,376.700 25.672,376.333 25.731 C 375.967 25.789,375.667 25.911,375.667 26.002 C 375.667 26.093,375.592 26.167,375.502 26.167 C 375.228 26.167,373.667 26.887,373.667 27.013 C 373.667 27.078,373.498 27.174,373.292 27.228 C 373.085 27.281,372.717 27.495,372.474 27.704 C 372.230 27.913,371.863 28.196,371.658 28.333 C 370.991 28.780,369.202 30.626,369.088 30.984 C 369.027 31.176,368.916 31.333,368.840 31.333 C 368.765 31.333,368.654 31.530,368.593 31.770 C 368.533 32.010,368.439 32.162,368.385 32.107 C 368.263 31.985,367.667 33.072,367.667 33.416 C 367.667 33.554,367.595 33.667,367.508 33.667 C 367.420 33.667,367.299 33.930,367.239 34.252 C 367.178 34.574,367.066 34.876,366.989 34.924 C 366.912 34.971,366.798 35.460,366.736 36.009 C 366.674 36.558,366.558 37.048,366.478 37.097 C 366.285 37.216,366.291 41.454,366.484 41.574 C 366.567 41.625,366.687 42.042,366.750 42.500 C 366.813 42.958,366.927 43.333,367.002 43.333 C 367.078 43.333,367.194 43.576,367.259 43.873 C 367.324 44.170,367.555 44.646,367.772 44.931 C 367.989 45.215,368.167 45.539,368.167 45.651 C 368.167 45.762,368.242 45.807,368.333 45.750 C 368.425 45.693,368.500 45.726,368.500 45.822 C 368.500 46.177,370.662 48.715,370.669 48.369 C 370.671 48.304,370.729 48.339,370.798 48.448 C 370.959 48.701,372.130 49.500,372.341 49.500 C 372.428 49.500,372.500 49.572,372.500 49.659 C 372.500 49.747,372.762 49.867,373.083 49.928 C 373.404 49.988,373.667 50.100,373.667 50.178 C 373.667 50.255,373.929 50.367,374.250 50.428 C 374.571 50.488,374.833 50.597,374.833 50.670 C 374.833 50.742,375.208 50.854,375.667 50.917 C 376.125 50.980,376.500 51.099,376.500 51.182 C 376.500 51.265,376.725 51.333,377.000 51.333 C 377.275 51.333,377.500 51.401,377.500 51.484 C 377.500 51.566,377.950 51.686,378.500 51.750 C 379.050 51.814,379.500 51.929,379.500 52.006 C 379.500 52.083,380.025 52.198,380.667 52.261 C 381.308 52.325,381.833 52.434,381.833 52.505 C 381.833 52.576,382.302 52.687,382.875 52.752 C 383.448 52.817,383.992 52.929,384.083 53.000 C 384.175 53.071,384.569 53.182,384.958 53.246 C 385.348 53.310,385.667 53.421,385.667 53.493 C 385.667 53.565,385.967 53.672,386.333 53.731 C 386.700 53.789,387.000 53.911,387.000 54.002 C 387.000 54.093,387.113 54.167,387.250 54.167 C 387.387 54.167,387.500 54.223,387.500 54.292 C 387.501 54.360,387.726 54.567,388.000 54.750 C 388.274 54.933,388.499 55.177,388.500 55.292 C 388.500 55.406,388.569 55.500,388.653 55.500 C 388.738 55.500,388.856 55.725,388.917 56.000 C 388.977 56.275,389.096 56.500,389.180 56.500 C 389.264 56.500,389.333 56.950,389.333 57.500 C 389.333 58.050,389.268 58.500,389.188 58.500 C 389.109 58.500,389.000 58.768,388.947 59.096 C 388.844 59.733,387.387 61.333,386.911 61.333 C 386.777 61.333,386.667 61.408,386.667 61.500 C 386.667 61.592,386.573 61.667,386.458 61.668 C 386.344 61.668,386.025 61.793,385.750 61.946 C 385.151 62.278,380.731 62.370,380.531 62.054 C 380.468 61.955,380.098 61.821,379.708 61.756 C 379.319 61.691,379.000 61.577,379.000 61.503 C 379.000 61.430,378.813 61.322,378.583 61.265 C 378.354 61.207,378.167 61.087,378.167 60.997 C 378.167 60.907,378.073 60.832,377.958 60.831 C 377.622 60.827,375.866 58.940,375.743 58.449 C 375.681 58.202,375.564 58.000,375.482 58.000 C 375.400 58.000,375.333 57.906,375.332 57.792 C 375.332 57.677,375.230 57.389,375.106 57.151 C 374.982 56.913,374.829 56.445,374.766 56.109 C 374.703 55.774,374.580 55.500,374.492 55.500 C 374.405 55.500,374.333 55.387,374.333 55.250 C 374.333 54.930,373.645 54.932,372.750 55.255 C 372.383 55.387,371.727 55.543,371.292 55.602 C 370.856 55.661,370.500 55.766,370.500 55.836 C 370.500 55.905,370.087 56.013,369.583 56.076 C 369.079 56.139,368.667 56.251,368.667 56.324 C 368.667 56.397,368.295 56.506,367.840 56.567 C 367.386 56.627,366.969 56.749,366.914 56.838 C 366.859 56.927,366.631 57.000,366.407 57.000 C 366.183 57.000,366.000 57.075,366.000 57.167 C 366.000 57.258,365.781 57.333,365.513 57.333 C 364.841 57.333,364.887 58.842,365.611 60.465 C 365.745 60.766,365.866 61.155,365.879 61.328 C 365.892 61.502,365.954 61.612,366.016 61.573 C 366.079 61.535,366.179 61.765,366.239 62.085 C 366.299 62.405,366.412 62.667,366.489 62.667 C 366.567 62.667,366.678 62.854,366.735 63.083 C 366.793 63.313,366.913 63.500,367.003 63.500 C 367.093 63.500,367.167 63.604,367.167 63.732 C 367.167 63.860,367.279 64.008,367.417 64.060 C 367.554 64.113,367.667 64.240,367.667 64.343 C 367.667 64.729,370.679 67.500,371.099 67.500 C 371.208 67.500,371.341 67.612,371.394 67.750 C 371.446 67.887,371.604 68.000,371.745 68.000 C 371.885 68.000,372.000 68.074,372.000 68.163 C 372.000 68.253,372.188 68.374,372.417 68.432 C 372.646 68.489,372.833 68.603,372.833 68.685 C 372.833 68.766,372.946 68.833,373.083 68.833 C 373.221 68.833,373.333 68.902,373.333 68.987 C 373.333 69.071,373.557 69.189,373.831 69.250 C 374.105 69.310,374.372 69.428,374.425 69.513 C 374.477 69.597,374.646 69.667,374.802 69.668 C 374.957 69.668,375.289 69.776,375.541 69.907 C 375.792 70.039,376.355 70.199,376.791 70.263 C 377.227 70.327,377.637 70.463,377.702 70.565 C 377.871 70.828,387.191 70.824,387.516 70.560 C 387.645 70.456,388.144 70.318,388.625 70.253 C 389.106 70.188,389.500 70.077,389.500 70.006 C 389.500 69.934,389.800 69.828,390.167 69.769 C 390.533 69.711,390.833 69.595,390.833 69.511 C 390.833 69.428,391.058 69.310,391.333 69.250 C 391.608 69.190,391.833 69.071,391.833 68.987 C 391.833 68.902,391.946 68.833,392.083 68.833 C 392.221 68.833,392.333 68.764,392.333 68.680 C 392.333 68.596,392.559 68.477,392.835 68.416 C 393.111 68.356,393.299 68.245,393.253 68.171 C 393.207 68.096,393.364 67.987,393.603 67.927 C 394.056 67.813,397.000 65.002,397.000 64.683 C 397.000 64.582,397.070 64.500,397.155 64.500 C 397.241 64.500,397.363 64.335,397.427 64.133 C 397.492 63.931,397.647 63.663,397.772 63.538 C 397.897 63.412,398.000 63.202,398.000 63.071 C 398.000 62.940,398.072 62.833,398.159 62.833 C 398.247 62.833,398.367 62.571,398.428 62.250 C 398.488 61.929,398.604 61.667,398.685 61.667 C 398.767 61.667,398.833 61.521,398.833 61.343 C 398.833 61.165,398.906 60.975,398.995 60.920 C 399.084 60.865,399.207 60.446,399.267 59.989 C 399.328 59.533,399.442 59.119,399.522 59.070 C 399.711 58.953,399.711 54.167,399.521 54.167 C 399.442 54.167,399.327 53.795,399.267 53.340 C 399.206 52.886,399.084 52.469,398.995 52.414 C 398.906 52.359,398.833 52.168,398.833 51.990 C 398.833 51.812,398.764 51.667,398.680 51.667 C 398.596 51.667,398.477 51.442,398.417 51.167 C 398.356 50.892,398.239 50.667,398.157 50.667 C 398.074 50.667,397.959 50.479,397.902 50.250 C 397.844 50.021,397.735 49.833,397.660 49.833 C 397.584 49.833,397.479 49.696,397.426 49.529 C 397.295 49.116,394.704 46.500,394.425 46.500 C 394.303 46.500,394.159 46.387,394.106 46.250 C 394.054 46.112,393.896 46.000,393.755 46.000 C 393.615 46.000,393.500 45.933,393.500 45.852 C 393.500 45.770,393.238 45.655,392.917 45.594 C 392.596 45.534,392.333 45.413,392.333 45.326 C 392.333 45.238,392.221 45.167,392.083 45.167 C 391.946 45.167,391.833 45.098,391.833 45.013 C 391.833 44.929,391.603 44.809,391.322 44.748 C 391.041 44.686,390.610 44.530,390.364 44.402 C 390.118 44.274,389.710 44.168,389.458 44.168 C 389.206 44.167,389.000 44.097,389.000 44.012 C 389.000 43.927,388.587 43.806,388.083 43.743 C 387.579 43.680,387.167 43.568,387.167 43.495 C 387.167 43.422,386.604 43.309,385.917 43.245 C 385.229 43.180,384.667 43.070,384.667 43.000 C 384.667 42.930,384.029 42.820,383.250 42.755 C 382.471 42.690,381.833 42.568,381.833 42.485 C 381.833 42.402,381.613 42.333,381.343 42.333 C 381.074 42.333,380.811 42.265,380.759 42.181 C 380.707 42.097,380.359 41.977,379.986 41.914 C 379.612 41.851,379.106 41.695,378.861 41.567 C 378.617 41.440,378.353 41.335,378.276 41.334 C 378.199 41.334,377.945 41.183,377.712 41.000 C 377.479 40.817,377.333 40.667,377.389 40.667 C 377.444 40.667,377.269 40.442,377.001 40.168 C 376.375 39.527,376.115 38.555,376.260 37.395 C 376.322 36.894,376.413 36.524,376.460 36.571 C 376.508 36.619,376.691 36.390,376.866 36.062 C 377.225 35.392,377.442 35.104,377.894 34.697 C 378.064 34.543,378.319 34.306,378.460 34.171 C 378.897 33.754,379.536 33.488,380.326 33.396 C 380.742 33.347,381.252 33.225,381.458 33.125 C 381.729 32.994,381.938 32.994,382.208 33.126 C 382.415 33.226,383.145 33.348,383.831 33.397 C 384.518 33.447,385.105 33.565,385.137 33.660 C 385.168 33.755,385.338 33.833,385.514 33.833 C 385.690 33.833,385.833 33.903,385.833 33.989 C 385.833 34.074,385.996 34.196,386.196 34.259 C 386.582 34.382,386.862 34.579,387.291 35.033 C 387.439 35.189,387.622 35.278,387.698 35.231 C 387.774 35.184,387.886 35.282,387.947 35.448 C 388.008 35.614,388.221 35.904,388.420 36.093 C 388.618 36.281,388.832 36.638,388.894 36.884 C 388.956 37.131,389.080 37.333,389.170 37.333 C 389.260 37.333,389.336 37.465,389.339 37.625 C 389.342 37.785,389.486 38.215,389.658 38.580 C 389.831 38.945,389.942 39.293,389.905 39.353 C 389.761 39.586,390.339 39.895,390.540 39.693 C 390.647 39.587,390.906 39.500,391.117 39.500 C 391.327 39.500,391.500 39.435,391.500 39.355 C 391.500 39.275,391.952 39.159,392.504 39.096 C 393.069 39.032,393.466 38.913,393.411 38.825 C 393.358 38.738,393.533 38.667,393.802 38.667 C 394.070 38.667,394.759 38.517,395.333 38.333 C 395.907 38.150,396.517 38.000,396.688 38.000 C 396.860 38.000,397.000 37.934,397.000 37.853 C 397.000 37.771,397.412 37.654,397.917 37.591 C 398.421 37.528,398.833 37.406,398.833 37.321 C 398.833 37.236,398.955 37.167,399.104 37.167 C 399.406 37.167,399.309 36.134,398.996 36.028 C 398.907 35.997,398.833 35.791,398.833 35.569 C 398.833 35.348,398.764 35.167,398.679 35.167 C 398.594 35.167,398.472 34.754,398.409 34.250 C 398.346 33.746,398.238 33.333,398.169 33.333 C 398.100 33.333,398.004 33.035,397.955 32.671 C 397.906 32.307,397.746 31.889,397.600 31.743 C 397.453 31.596,397.333 31.365,397.333 31.228 C 397.333 31.092,397.258 31.027,397.167 31.083 C 397.075 31.140,397.000 31.120,397.000 31.040 C 397.000 30.959,396.775 30.641,396.500 30.333 C 396.225 30.025,396.000 29.712,396.000 29.637 C 396.000 29.561,395.928 29.500,395.840 29.500 C 395.752 29.500,395.332 29.162,394.908 28.750 C 394.483 28.337,394.048 28.000,393.941 28.000 C 393.834 28.000,393.657 27.857,393.548 27.682 C 393.439 27.507,393.127 27.314,392.855 27.255 C 392.583 27.195,392.320 27.038,392.269 26.906 C 392.219 26.775,392.031 26.667,391.852 26.667 C 391.542 26.667,390.509 26.199,390.333 25.979 C 390.288 25.921,389.931 25.821,389.542 25.756 C 389.152 25.691,388.833 25.578,388.833 25.505 C 388.833 25.432,388.421 25.320,387.917 25.257 C 387.412 25.194,387.000 25.073,387.000 24.988 C 387.000 24.903,386.667 24.833,386.260 24.833 C 385.853 24.833,385.472 24.756,385.413 24.661 C 385.279 24.444,380.042 24.464,379.908 24.681 M148.292 25.278 C 147.765 25.318,147.333 25.412,147.333 25.487 C 147.333 25.562,146.886 25.674,146.338 25.736 C 145.791 25.798,145.302 25.916,145.251 25.998 C 145.200 26.080,144.823 26.198,144.413 26.259 C 144.002 26.321,143.667 26.430,143.667 26.501 C 143.667 26.572,143.460 26.679,143.208 26.738 C 142.621 26.875,141.667 27.370,141.667 27.538 C 141.667 27.609,141.554 27.667,141.417 27.667 C 141.279 27.667,141.167 27.734,141.167 27.815 C 141.167 27.897,140.979 28.011,140.750 28.068 C 140.521 28.126,140.333 28.247,140.333 28.337 C 140.333 28.426,140.226 28.500,140.095 28.500 C 139.964 28.500,139.726 28.631,139.565 28.792 C 139.405 28.952,139.231 29.083,139.179 29.083 C 139.064 29.084,137.831 30.205,137.107 30.968 C 136.819 31.272,136.275 31.837,135.898 32.224 C 135.520 32.612,135.159 33.095,135.095 33.298 C 135.030 33.501,134.908 33.667,134.822 33.667 C 134.737 33.667,134.667 33.771,134.667 33.899 C 134.667 34.027,134.554 34.174,134.417 34.227 C 134.279 34.280,134.167 34.438,134.167 34.578 C 134.167 34.718,134.098 34.833,134.013 34.833 C 133.929 34.833,133.810 35.058,133.750 35.333 C 133.690 35.608,133.575 35.833,133.494 35.833 C 133.414 35.833,133.299 36.096,133.239 36.417 C 133.179 36.737,133.066 37.000,132.989 37.000 C 132.912 37.000,132.799 37.263,132.739 37.585 C 132.678 37.907,132.567 38.209,132.491 38.256 C 132.415 38.303,132.302 38.677,132.241 39.087 C 132.179 39.498,132.081 39.833,132.022 39.833 C 131.846 39.833,131.501 41.113,131.389 42.175 C 131.332 42.720,131.234 43.167,131.171 43.167 C 130.864 43.167,130.807 52.609,131.113 52.803 C 131.212 52.865,131.347 53.386,131.413 53.959 C 131.479 54.532,131.600 55.042,131.683 55.093 C 131.766 55.145,131.833 55.369,131.833 55.593 C 131.833 55.817,131.904 56.000,131.990 56.000 C 132.076 56.000,132.197 56.337,132.259 56.750 C 132.321 57.163,132.432 57.500,132.506 57.500 C 132.580 57.500,132.691 57.730,132.752 58.011 C 132.814 58.292,132.970 58.724,133.098 58.970 C 133.226 59.215,133.332 59.510,133.332 59.625 C 133.333 59.740,133.407 59.833,133.497 59.833 C 133.587 59.833,133.707 60.021,133.765 60.250 C 133.822 60.479,133.936 60.667,134.018 60.667 C 134.100 60.667,134.167 60.783,134.167 60.924 C 134.167 61.066,134.354 61.369,134.583 61.598 C 134.813 61.828,135.000 62.081,135.000 62.162 C 135.000 62.243,135.096 62.409,135.214 62.530 C 135.331 62.651,135.597 62.991,135.804 63.285 C 136.245 63.912,137.428 65.167,137.578 65.167 C 137.692 65.167,138.451 65.952,138.533 66.155 C 138.608 66.340,140.302 67.500,140.498 67.500 C 140.591 67.500,140.667 67.574,140.667 67.663 C 140.667 67.753,140.854 67.874,141.082 67.931 C 141.311 67.989,141.460 68.096,141.414 68.171 C 141.368 68.245,141.556 68.356,141.832 68.416 C 142.108 68.477,142.333 68.596,142.333 68.680 C 142.333 68.764,142.483 68.833,142.667 68.833 C 142.850 68.833,143.000 68.913,143.000 69.010 C 143.000 69.107,143.070 69.143,143.155 69.090 C 143.240 69.038,143.357 69.071,143.415 69.164 C 143.473 69.257,143.659 69.333,143.829 69.333 C 144.000 69.333,144.166 69.416,144.200 69.516 C 144.233 69.617,144.613 69.739,145.044 69.788 C 145.474 69.836,145.792 69.931,145.751 69.999 C 145.677 70.118,146.576 70.320,148.833 70.690 C 150.157 70.908,156.153 70.790,156.309 70.543 C 156.368 70.450,156.810 70.320,157.292 70.255 C 157.773 70.189,158.167 70.071,158.167 69.992 C 158.167 69.913,158.429 69.799,158.750 69.739 C 159.071 69.679,159.333 69.571,159.333 69.500 C 159.333 69.428,159.521 69.322,159.750 69.265 C 159.979 69.207,160.167 69.082,160.167 68.987 C 160.167 68.892,160.242 68.860,160.335 68.917 C 160.427 68.974,160.545 68.911,160.597 68.776 C 160.648 68.641,160.860 68.488,161.067 68.436 C 161.273 68.384,161.635 68.163,161.870 67.946 C 162.105 67.728,162.568 67.382,162.898 67.178 C 163.229 66.973,163.500 66.695,163.500 66.560 C 163.500 66.424,163.567 66.355,163.649 66.406 C 163.731 66.457,163.841 66.386,163.894 66.249 C 164.172 65.525,164.333 66.138,164.333 67.917 L 164.333 69.833 167.417 69.833 C 169.190 69.833,170.500 69.899,170.500 69.987 C 170.500 70.073,171.457 70.143,172.667 70.145 L 174.833 70.149 174.833 48.241 L 174.833 26.333 169.667 26.333 L 164.500 26.333 164.500 28.575 L 164.500 30.816 163.078 29.407 C 162.297 28.632,161.340 27.793,160.953 27.542 C 160.567 27.292,160.212 27.035,160.165 26.973 C 160.118 26.911,159.874 26.808,159.623 26.745 C 159.372 26.682,159.167 26.570,159.167 26.497 C 159.167 26.423,158.867 26.312,158.500 26.250 C 158.133 26.188,157.833 26.076,157.833 26.001 C 157.833 25.926,157.440 25.812,156.958 25.747 C 156.477 25.682,155.990 25.554,155.876 25.462 C 155.661 25.288,149.998 25.150,148.292 25.278 M202.254 25.280 C 201.798 25.321,201.348 25.415,201.254 25.488 C 201.160 25.561,200.775 25.668,200.397 25.726 C 200.020 25.783,199.495 25.943,199.230 26.081 C 198.966 26.219,198.658 26.332,198.545 26.332 C 198.269 26.334,196.431 27.332,196.361 27.518 C 196.331 27.600,196.234 27.667,196.146 27.667 C 196.057 27.667,195.783 27.854,195.536 28.083 C 195.289 28.313,195.020 28.500,194.938 28.500 C 194.857 28.500,194.269 29.025,193.632 29.667 C 192.996 30.308,192.443 30.833,192.404 30.833 C 192.365 30.833,192.333 29.821,192.333 28.583 L 192.333 26.333 187.250 26.333 L 182.167 26.333 182.167 48.250 L 182.167 70.167 187.399 70.167 C 192.047 70.167,192.642 70.137,192.734 69.899 C 192.790 69.752,192.834 63.359,192.831 55.692 C 192.828 46.358,192.883 41.734,192.997 41.696 C 193.090 41.664,193.167 41.494,193.167 41.317 C 193.167 41.140,193.239 40.865,193.327 40.706 C 193.415 40.547,193.691 39.969,193.939 39.423 C 194.372 38.471,196.245 36.333,196.646 36.333 C 196.740 36.333,196.877 36.232,196.950 36.107 C 197.117 35.824,198.930 35.193,199.732 35.139 C 200.063 35.117,200.333 35.039,200.333 34.966 C 200.333 34.786,202.457 34.796,202.569 34.977 C 202.618 35.056,203.128 35.159,203.704 35.207 C 205.070 35.320,205.774 35.687,207.047 36.946 C 208.157 38.044,208.644 38.685,208.756 39.194 C 208.813 39.454,208.922 39.667,208.998 39.667 C 209.073 39.667,209.187 40.042,209.250 40.500 C 209.313 40.958,209.433 41.375,209.516 41.426 C 209.604 41.481,209.667 47.327,209.667 55.510 C 209.667 66.589,209.710 69.501,209.875 69.503 C 210.014 69.504,210.000 69.559,209.833 69.667 C 209.667 69.774,209.653 69.829,209.792 69.831 C 209.906 69.832,210.000 69.946,210.000 70.083 C 210.000 70.300,210.694 70.333,215.242 70.333 L 220.484 70.333 220.534 55.972 C 220.573 44.667,220.628 41.596,220.792 41.542 C 220.906 41.503,221.000 41.365,221.000 41.234 C 221.000 41.103,221.070 40.865,221.156 40.706 C 221.242 40.547,221.485 40.042,221.696 39.583 C 221.906 39.125,222.249 38.585,222.456 38.383 C 222.664 38.181,222.833 37.948,222.833 37.865 C 222.833 37.781,223.034 37.572,223.280 37.398 C 223.525 37.225,223.898 36.920,224.108 36.721 C 224.318 36.522,224.642 36.311,224.828 36.252 C 225.014 36.193,225.167 36.083,225.167 36.007 C 225.167 35.932,225.448 35.818,225.792 35.754 C 226.135 35.689,226.522 35.550,226.651 35.443 C 226.980 35.172,232.465 35.174,232.633 35.445 C 232.699 35.552,232.959 35.692,233.210 35.755 C 233.461 35.818,233.667 35.936,233.667 36.018 C 233.667 36.100,233.773 36.167,233.902 36.167 C 234.186 36.167,235.962 37.952,236.095 38.371 C 236.147 38.534,236.264 38.667,236.354 38.667 C 236.445 38.667,236.477 38.736,236.424 38.822 C 236.371 38.907,236.404 39.024,236.497 39.082 C 236.590 39.139,236.667 39.332,236.667 39.510 C 236.667 39.688,236.733 39.833,236.814 39.833 C 236.960 39.833,237.255 41.229,237.191 41.612 C 237.173 41.720,237.235 41.856,237.329 41.914 C 237.444 41.985,237.500 46.648,237.500 56.093 L 237.500 70.167 242.708 70.167 L 247.917 70.167 247.873 54.542 C 247.849 45.577,247.765 38.775,247.678 38.583 C 247.594 38.400,247.480 37.801,247.424 37.252 C 247.367 36.703,247.249 36.182,247.161 36.094 C 247.072 36.006,247.000 35.780,246.999 35.592 C 246.998 35.404,246.893 35.049,246.765 34.803 C 246.636 34.557,246.481 34.126,246.419 33.845 C 246.357 33.563,246.247 33.333,246.173 33.333 C 246.100 33.333,245.827 32.912,245.566 32.397 C 245.306 31.882,244.997 31.424,244.880 31.379 C 244.762 31.334,244.667 31.194,244.667 31.066 C 244.667 30.939,244.329 30.493,243.917 30.074 C 243.504 29.656,243.167 29.243,243.167 29.157 C 243.167 29.071,243.086 29.000,242.987 29.000 C 242.888 29.000,242.583 28.775,242.308 28.500 C 242.033 28.225,241.701 28.000,241.571 28.000 C 241.440 28.000,241.333 27.924,241.333 27.831 C 241.333 27.612,240.316 26.991,240.137 27.102 C 240.062 27.148,240.000 27.113,240.000 27.023 C 240.000 26.933,239.775 26.810,239.500 26.750 C 239.225 26.690,239.000 26.577,239.000 26.500 C 239.000 26.423,238.756 26.308,238.458 26.244 C 238.160 26.180,237.834 26.062,237.733 25.981 C 237.632 25.900,237.182 25.786,236.733 25.727 C 236.284 25.669,235.811 25.537,235.683 25.435 C 235.365 25.183,228.531 25.185,228.367 25.437 C 228.303 25.535,227.800 25.668,227.250 25.731 C 226.700 25.793,226.225 25.917,226.194 26.006 C 226.164 26.094,225.976 26.169,225.778 26.172 C 225.579 26.175,225.117 26.323,224.750 26.500 C 224.383 26.677,223.990 26.825,223.875 26.828 C 223.760 26.831,223.667 26.908,223.667 27.000 C 223.667 27.092,223.513 27.167,223.326 27.167 C 223.138 27.167,222.797 27.354,222.568 27.583 C 222.339 27.813,222.080 28.000,221.993 28.000 C 221.766 28.000,219.000 30.766,219.000 30.993 C 219.000 31.097,218.824 31.348,218.609 31.550 C 218.393 31.751,218.178 32.029,218.131 32.167 C 218.069 32.344,217.977 32.271,217.815 31.917 C 217.690 31.642,217.493 31.318,217.377 31.196 C 217.261 31.075,217.167 30.913,217.167 30.836 C 217.167 30.567,215.262 28.502,214.474 27.917 C 214.351 27.825,213.979 27.548,213.648 27.301 C 213.316 27.053,212.848 26.801,212.606 26.741 C 212.364 26.680,212.167 26.570,212.167 26.497 C 212.167 26.423,211.866 26.312,211.499 26.250 C 211.132 26.188,210.868 26.078,210.913 26.007 C 210.998 25.869,210.059 25.672,209.306 25.669 C 209.061 25.667,208.833 25.581,208.798 25.476 C 208.731 25.277,203.892 25.132,202.254 25.280 M289.542 25.779 C 288.877 25.817,288.333 25.909,288.333 25.983 C 288.333 26.058,287.827 26.166,287.209 26.223 C 286.591 26.281,286.060 26.405,286.029 26.498 C 285.998 26.591,285.772 26.667,285.528 26.668 C 285.283 26.668,284.882 26.774,284.636 26.902 C 284.390 27.030,283.959 27.186,283.678 27.248 C 283.397 27.309,283.167 27.429,283.167 27.513 C 283.167 27.598,283.054 27.667,282.917 27.667 C 282.779 27.667,282.667 27.736,282.667 27.820 C 282.667 27.904,282.442 28.023,282.167 28.083 C 281.892 28.144,281.667 28.261,281.667 28.343 C 281.667 28.426,281.479 28.541,281.250 28.598 C 281.021 28.656,280.833 28.765,280.833 28.840 C 280.833 28.916,280.684 29.025,280.502 29.083 C 279.768 29.316,275.333 33.679,275.333 34.169 C 275.333 34.246,275.240 34.412,275.125 34.537 C 274.585 35.125,272.833 38.652,272.833 39.149 C 272.833 39.342,272.765 39.500,272.682 39.500 C 272.599 39.500,272.480 39.875,272.417 40.333 C 272.354 40.791,272.240 41.205,272.164 41.252 C 272.088 41.298,271.973 41.842,271.908 42.460 C 271.842 43.078,271.718 43.629,271.631 43.685 C 271.544 43.741,271.431 45.241,271.379 47.018 C 271.284 50.344,271.432 53.895,271.661 53.753 C 271.733 53.709,271.842 54.197,271.906 54.837 C 271.969 55.476,272.084 56.000,272.162 56.000 C 272.240 56.000,272.355 56.300,272.417 56.666 C 272.478 57.032,272.597 57.374,272.681 57.426 C 272.765 57.477,272.833 57.665,272.833 57.842 C 272.833 58.245,273.368 59.500,273.539 59.500 C 273.609 59.500,273.667 59.580,273.667 59.677 C 273.667 60.042,274.680 61.977,275.125 62.463 C 275.240 62.588,275.333 62.759,275.333 62.843 C 275.333 63.023,275.714 63.512,276.433 64.258 C 276.716 64.552,277.125 65.046,277.341 65.355 C 277.557 65.664,277.783 65.954,277.844 66.000 C 278.760 66.696,279.083 66.964,279.307 67.208 C 279.454 67.369,279.674 67.500,279.797 67.500 C 279.919 67.500,279.973 67.575,279.917 67.667 C 279.860 67.758,279.933 67.833,280.079 67.833 C 280.225 67.833,280.387 67.946,280.440 68.083 C 280.492 68.221,280.635 68.333,280.756 68.333 C 280.877 68.333,281.075 68.427,281.196 68.542 C 281.318 68.657,281.717 68.901,282.083 69.084 C 282.450 69.267,282.788 69.467,282.835 69.528 C 282.882 69.590,283.126 69.692,283.377 69.755 C 283.628 69.818,283.833 69.930,283.833 70.003 C 283.833 70.077,284.133 70.188,284.500 70.250 C 284.867 70.312,285.167 70.421,285.167 70.493 C 285.167 70.565,285.482 70.674,285.867 70.736 C 286.252 70.798,286.651 70.918,286.754 71.003 C 286.857 71.089,287.480 71.209,288.137 71.270 C 288.795 71.331,289.333 71.445,289.333 71.524 C 289.333 71.602,290.758 71.667,292.500 71.667 C 294.242 71.667,295.667 71.601,295.667 71.522 C 295.667 71.442,296.192 71.325,296.833 71.261 C 297.475 71.198,298.000 71.083,298.000 71.005 C 298.000 70.926,298.300 70.812,298.667 70.750 C 299.033 70.688,299.333 70.569,299.333 70.485 C 299.333 70.402,299.450 70.333,299.592 70.333 C 299.876 70.333,301.099 69.706,301.462 69.375 C 301.588 69.260,301.751 69.167,301.826 69.167 C 301.900 69.167,302.565 68.567,303.303 67.833 C 304.041 67.100,304.688 66.500,304.739 66.500 C 304.791 66.500,304.833 71.188,304.833 76.917 C 304.833 88.347,304.785 87.877,305.835 86.657 C 306.155 86.285,306.848 85.527,307.375 84.973 C 307.902 84.418,308.333 83.860,308.333 83.732 C 308.333 83.605,308.424 83.519,308.534 83.542 C 308.645 83.565,308.738 83.503,308.742 83.405 C 308.747 83.307,309.162 82.811,309.667 82.302 C 310.171 81.793,310.712 81.198,310.870 80.980 C 311.175 80.558,312.042 79.581,313.436 78.089 C 313.904 77.587,314.248 77.137,314.199 77.088 C 314.151 77.040,314.199 77.000,314.306 77.000 C 314.413 77.000,314.500 76.921,314.500 76.825 C 314.500 76.729,314.688 76.477,314.917 76.265 L 315.333 75.878 315.333 51.356 L 315.333 26.833 310.167 26.833 L 305.000 26.833 305.000 29.161 C 305.000 31.162,304.965 31.476,304.750 31.394 C 304.612 31.341,304.500 31.230,304.500 31.147 C 304.500 31.009,304.085 30.498,303.249 29.607 C 303.064 29.411,302.634 29.063,302.291 28.833 C 301.949 28.604,301.668 28.369,301.668 28.310 C 301.667 28.251,301.479 28.156,301.250 28.098 C 301.021 28.041,300.833 27.920,300.833 27.830 C 300.833 27.740,300.721 27.667,300.583 27.667 C 300.446 27.667,300.333 27.598,300.333 27.513 C 300.333 27.429,300.108 27.310,299.833 27.250 C 299.558 27.190,299.333 27.072,299.333 26.989 C 299.333 26.905,299.033 26.789,298.667 26.731 C 298.300 26.672,298.000 26.567,298.000 26.498 C 298.000 26.429,297.569 26.318,297.042 26.253 C 296.515 26.188,296.006 26.071,295.912 25.994 C 295.710 25.829,291.287 25.680,289.542 25.779 M254.833 48.083 L 254.833 69.833 260.333 69.833 L 265.833 69.833 265.833 48.083 L 265.833 26.333 260.333 26.333 L 254.833 26.333 254.833 48.083 M320.743 26.542 C 320.439 27.335,320.844 58.167,321.158 58.167 C 321.229 58.167,321.333 58.560,321.390 59.041 C 321.447 59.521,321.570 59.940,321.664 59.971 C 321.757 60.002,321.834 60.190,321.834 60.389 C 321.835 60.587,321.940 60.951,322.069 61.197 C 322.197 61.443,322.352 61.874,322.414 62.155 C 322.476 62.437,322.587 62.667,322.662 62.667 C 322.736 62.667,322.840 62.837,322.892 63.045 C 322.944 63.253,323.140 63.587,323.327 63.788 C 323.514 63.989,323.667 64.220,323.667 64.302 C 323.667 64.502,325.312 66.665,325.782 67.083 C 326.239 67.489,327.077 68.202,327.750 68.757 C 328.025 68.983,328.397 69.216,328.576 69.273 C 328.755 69.330,329.004 69.480,329.129 69.605 C 329.255 69.731,329.464 69.833,329.595 69.833 C 329.726 69.833,329.833 69.908,329.833 70.000 C 329.833 70.092,329.965 70.167,330.125 70.168 C 330.285 70.168,330.633 70.281,330.897 70.419 C 331.161 70.557,331.686 70.718,332.064 70.777 C 332.441 70.836,332.804 70.966,332.869 71.067 C 333.040 71.331,341.967 71.322,342.131 71.059 C 342.196 70.953,342.680 70.814,343.206 70.748 C 343.732 70.682,344.127 70.571,344.083 70.500 C 344.039 70.429,344.340 70.320,344.752 70.258 C 345.163 70.197,345.500 70.094,345.500 70.029 C 345.500 69.913,345.759 69.761,346.794 69.272 C 347.093 69.131,347.382 68.899,347.437 68.758 C 347.491 68.616,347.603 68.500,347.684 68.500 C 347.766 68.500,347.974 68.359,348.146 68.187 C 348.318 68.016,348.524 67.847,348.604 67.812 C 348.684 67.778,348.994 67.466,349.292 67.119 L 349.833 66.488 349.833 67.494 C 349.833 68.047,349.899 68.500,349.979 68.500 C 350.058 68.500,350.172 68.868,350.232 69.317 C 350.374 70.386,350.086 70.333,355.791 70.333 L 360.721 70.333 360.611 64.958 C 360.550 62.002,360.500 52.102,360.500 42.958 L 360.500 26.333 354.923 26.333 L 349.345 26.333 349.298 40.944 C 349.260 52.451,349.206 55.570,349.042 55.625 C 348.927 55.663,348.833 55.857,348.832 56.056 C 348.832 56.254,348.719 56.631,348.582 56.894 C 348.445 57.157,348.333 57.467,348.333 57.585 C 348.333 57.702,348.221 57.841,348.083 57.894 C 347.946 57.946,347.833 58.068,347.833 58.163 C 347.833 58.258,347.627 58.570,347.375 58.855 C 347.123 59.141,346.935 59.440,346.958 59.521 C 346.981 59.601,346.906 59.669,346.792 59.671 C 346.677 59.674,346.369 59.895,346.106 60.162 C 345.844 60.430,345.413 60.696,345.148 60.754 C 344.883 60.812,344.667 60.915,344.667 60.982 C 344.667 61.564,338.218 62.105,337.861 61.552 C 337.800 61.458,337.469 61.330,337.125 61.266 C 336.781 61.203,336.500 61.088,336.500 61.011 C 336.500 60.933,336.313 60.822,336.083 60.765 C 335.854 60.707,335.667 60.587,335.667 60.497 C 335.667 60.407,335.573 60.333,335.458 60.332 C 335.208 60.331,333.667 58.766,333.667 58.512 C 333.667 58.414,333.605 58.333,333.530 58.333 C 333.359 58.333,332.667 56.970,332.667 56.635 C 332.667 56.499,332.615 56.337,332.552 56.275 C 332.316 56.039,332.047 54.998,332.121 54.609 C 332.163 54.387,332.116 54.155,332.016 54.093 C 331.886 54.013,331.833 49.986,331.833 40.157 L 331.833 26.333 326.328 26.333 C 322.078 26.333,320.805 26.381,320.743 26.542 M154.833 34.983 C 154.833 35.065,155.358 35.186,156.000 35.250 C 156.642 35.314,157.167 35.429,157.167 35.504 C 157.167 35.579,157.392 35.690,157.667 35.750 C 157.942 35.810,158.167 35.929,158.167 36.013 C 158.167 36.098,158.311 36.167,158.488 36.167 C 158.665 36.167,158.922 36.279,159.060 36.417 C 159.197 36.554,159.356 36.667,159.414 36.667 C 159.471 36.667,159.758 36.891,160.051 37.166 C 160.344 37.440,160.645 37.665,160.720 37.666 C 160.987 37.667,162.500 39.511,162.500 39.835 C 162.500 39.926,162.570 40.000,162.655 40.000 C 162.741 40.000,162.864 40.169,162.928 40.375 C 162.992 40.581,163.091 40.788,163.147 40.833 C 163.423 41.058,163.858 42.133,163.949 42.817 C 164.005 43.238,164.133 43.637,164.234 43.702 C 164.500 43.875,164.486 50.866,164.219 51.187 C 164.110 51.318,163.970 51.815,163.906 52.293 C 163.843 52.770,163.734 53.125,163.664 53.082 C 163.594 53.039,163.487 53.340,163.425 53.752 C 163.363 54.163,163.251 54.500,163.175 54.500 C 163.098 54.500,162.988 54.694,162.928 54.930 C 162.816 55.378,162.009 56.709,161.792 56.806 C 161.723 56.836,161.665 56.949,161.664 57.056 C 161.662 57.163,161.475 57.426,161.248 57.642 C 161.020 57.857,160.883 58.113,160.943 58.209 C 161.003 58.306,160.978 58.339,160.888 58.284 C 160.798 58.228,160.342 58.554,159.873 59.008 C 159.405 59.462,158.942 59.833,158.844 59.833 C 158.747 59.833,158.667 59.902,158.667 59.987 C 158.667 60.071,158.442 60.190,158.167 60.250 C 157.892 60.310,157.667 60.425,157.667 60.506 C 157.667 60.586,157.385 60.703,157.042 60.766 C 156.698 60.830,156.369 60.955,156.311 61.044 C 156.049 61.448,150.443 61.428,149.937 61.022 C 149.834 60.939,149.494 60.817,149.181 60.750 C 148.867 60.683,148.509 60.543,148.383 60.439 C 147.746 59.911,147.276 59.589,146.852 59.389 C 146.506 59.226,144.667 57.392,144.667 57.210 C 144.667 57.123,144.517 56.916,144.333 56.750 C 144.150 56.584,144.000 56.347,144.000 56.224 C 144.000 56.101,143.934 56.000,143.853 56.000 C 143.710 56.000,143.446 55.377,143.482 55.125 C 143.492 55.056,143.425 55.000,143.333 55.000 C 143.242 55.000,143.167 54.887,143.167 54.750 C 143.167 54.612,143.098 54.500,143.015 54.500 C 142.931 54.500,142.810 54.181,142.746 53.792 C 142.682 53.402,142.557 52.994,142.469 52.885 C 142.382 52.777,142.269 52.139,142.219 51.469 C 142.169 50.798,142.061 50.179,141.980 50.092 C 141.792 49.888,141.787 46.048,141.975 45.932 C 142.053 45.884,142.162 45.310,142.217 44.658 C 142.272 44.005,142.385 43.384,142.470 43.277 C 142.554 43.171,142.674 42.802,142.736 42.458 C 142.798 42.115,142.912 41.833,142.989 41.833 C 143.067 41.833,143.175 41.655,143.230 41.437 C 143.347 40.970,144.650 38.775,144.857 38.694 C 144.936 38.664,145.000 38.568,145.000 38.481 C 145.000 38.185,147.412 36.167,147.766 36.167 C 147.895 36.167,148.000 36.095,148.000 36.008 C 148.000 35.920,148.281 35.797,148.625 35.734 C 148.969 35.670,149.293 35.553,149.345 35.472 C 149.398 35.392,149.942 35.280,150.554 35.222 C 151.166 35.165,151.667 35.054,151.667 34.976 C 151.667 34.897,152.379 34.833,153.250 34.833 C 154.121 34.833,154.833 34.901,154.833 34.983 M295.127 35.492 C 295.286 35.579,295.848 35.697,296.375 35.754 C 296.902 35.811,297.333 35.926,297.333 36.010 C 297.333 36.094,297.633 36.211,298.000 36.269 C 298.367 36.328,298.667 36.441,298.667 36.521 C 298.667 36.601,298.771 36.667,298.899 36.667 C 299.027 36.667,299.174 36.779,299.227 36.917 C 299.280 37.054,299.438 37.167,299.578 37.167 C 299.718 37.167,299.833 37.242,299.833 37.333 C 299.833 37.425,299.942 37.500,300.075 37.500 C 300.356 37.500,302.667 39.728,302.667 39.999 C 302.667 40.169,302.791 40.350,303.283 40.902 C 303.393 41.026,303.533 41.323,303.593 41.563 C 303.653 41.803,303.770 42.000,303.851 42.000 C 303.933 42.000,304.000 42.188,304.000 42.417 C 304.000 42.646,304.069 42.833,304.153 42.833 C 304.238 42.833,304.360 43.340,304.426 43.958 C 304.491 44.577,304.615 45.129,304.702 45.184 C 304.917 45.323,304.916 51.012,304.701 51.146 C 304.609 51.203,304.480 51.681,304.414 52.208 C 304.349 52.735,304.229 53.167,304.147 53.167 C 304.066 53.167,304.000 53.354,304.000 53.583 C 304.000 53.813,303.932 54.000,303.848 54.000 C 303.764 54.000,303.645 54.300,303.583 54.667 C 303.521 55.033,303.390 55.333,303.291 55.333 C 303.192 55.333,303.158 55.380,303.215 55.437 C 303.271 55.494,303.134 55.811,302.909 56.142 C 302.684 56.473,302.500 56.877,302.500 57.039 C 302.500 57.201,302.423 57.333,302.328 57.333 C 302.234 57.333,302.107 57.461,302.047 57.617 C 301.908 57.981,299.560 60.333,299.336 60.333 C 299.243 60.333,299.167 60.402,299.167 60.487 C 299.167 60.571,298.941 60.690,298.665 60.750 C 298.389 60.811,298.205 60.928,298.256 61.010 C 298.307 61.093,298.045 61.209,297.675 61.268 C 297.304 61.327,297.000 61.434,297.000 61.505 C 297.000 61.576,296.550 61.686,296.000 61.750 C 295.450 61.814,295.000 61.934,295.000 62.016 C 295.000 62.211,291.882 62.214,291.762 62.019 C 291.712 61.938,291.332 61.821,290.918 61.759 C 290.504 61.697,289.959 61.539,289.707 61.407 C 289.456 61.276,289.156 61.168,289.042 61.168 C 288.927 61.167,288.833 61.098,288.833 61.013 C 288.833 60.929,288.608 60.810,288.333 60.750 C 288.058 60.690,287.833 60.576,287.833 60.498 C 287.833 60.420,287.671 60.304,287.473 60.241 C 286.921 60.066,284.333 57.333,284.333 56.925 C 284.333 56.808,284.202 56.532,284.042 56.313 C 283.607 55.719,283.333 55.197,283.332 54.961 C 283.332 54.845,283.224 54.544,283.093 54.293 C 282.902 53.927,282.640 52.802,282.591 52.139 C 282.587 52.078,282.527 51.972,282.458 51.903 C 282.279 51.724,282.303 45.372,282.484 45.260 C 282.566 45.209,282.686 44.717,282.750 44.167 C 282.814 43.617,282.934 43.167,283.016 43.167 C 283.099 43.167,283.169 43.035,283.172 42.875 C 283.175 42.715,283.323 42.283,283.500 41.917 C 283.677 41.550,283.825 41.156,283.828 41.042 C 283.831 40.927,283.903 40.833,283.989 40.833 C 284.074 40.833,284.194 40.675,284.256 40.482 C 284.473 39.798,286.391 37.779,287.500 37.068 C 287.912 36.803,288.287 36.539,288.333 36.481 C 288.379 36.423,288.660 36.322,288.958 36.258 C 289.256 36.193,289.500 36.076,289.500 35.997 C 289.500 35.918,290.025 35.802,290.667 35.739 C 291.308 35.675,291.833 35.558,291.833 35.478 C 291.833 35.281,294.765 35.293,295.127 35.492 " stroke="none" fill="#343c4c" fill-rule="evenodd"></path><path id="path2" d="M102.171 72.458 C 102.173 72.619,102.253 73.050,102.348 73.417 C 102.443 73.783,102.623 74.496,102.748 75.000 C 102.872 75.504,103.176 76.667,103.423 77.583 C 103.669 78.500,103.972 79.662,104.096 80.167 C 104.220 80.671,104.442 81.533,104.589 82.083 C 104.737 82.633,104.957 83.496,105.078 84.000 C 105.200 84.504,105.540 85.817,105.834 86.917 C 106.128 88.017,106.431 89.179,106.508 89.500 C 106.585 89.821,106.770 90.533,106.918 91.083 C 107.507 93.263,107.525 93.381,107.299 93.525 C 107.147 93.621,107.187 93.662,107.435 93.664 C 107.689 93.666,107.914 93.426,108.252 92.792 C 108.508 92.310,108.995 91.392,109.334 90.750 C 110.034 89.426,110.576 88.499,110.800 88.241 C 110.884 88.144,111.267 87.432,111.652 86.658 C 112.354 85.247,112.678 84.656,112.833 84.500 C 112.879 84.454,113.089 84.079,113.300 83.667 C 113.511 83.254,114.056 82.242,114.511 81.417 C 114.966 80.592,115.383 79.785,115.438 79.625 C 115.494 79.465,115.605 79.333,115.686 79.333 C 115.767 79.333,115.833 79.221,115.833 79.083 C 115.833 78.946,115.902 78.833,115.987 78.833 C 116.071 78.833,116.190 78.608,116.250 78.333 C 116.310 78.058,116.415 77.833,116.481 77.833 C 116.548 77.833,116.786 77.422,117.010 76.918 C 117.234 76.415,117.473 76.003,117.542 76.002 C 117.610 76.001,117.667 75.893,117.667 75.762 C 117.667 75.631,117.763 75.425,117.880 75.304 C 118.415 74.750,119.470 72.357,119.220 72.262 C 118.484 71.979,102.167 72.167,102.171 72.458 " stroke="none" fill="#04731c" fill-rule="evenodd"></path><path id="path3" d="M102.028 72.667 C 102.026 72.896,102.088 73.233,102.167 73.417 L 102.310 73.750 102.305 73.417 C 102.302 73.233,102.240 72.896,102.167 72.667 L 102.033 72.250 102.028 72.667 M102.437 74.417 C 102.601 75.406,102.857 75.913,102.732 75.000 C 102.675 74.587,102.561 74.137,102.478 74.000 C 102.381 73.840,102.366 73.990,102.437 74.417 M102.889 76.167 C 102.946 76.396,103.237 77.558,103.534 78.750 C 103.831 79.942,104.100 80.790,104.131 80.634 C 104.162 80.479,104.104 80.067,104.001 79.718 C 103.898 79.369,103.636 78.382,103.417 77.524 C 103.199 76.666,102.967 75.916,102.902 75.857 C 102.837 75.798,102.831 75.938,102.889 76.167 M104.264 81.500 C 104.437 82.399,104.694 82.886,104.571 82.083 C 104.515 81.717,104.398 81.304,104.311 81.167 C 104.203 80.997,104.188 81.104,104.264 81.500 M104.770 83.417 C 104.934 84.406,105.190 84.913,105.065 84.000 C 105.009 83.587,104.894 83.137,104.811 83.000 C 104.714 82.840,104.700 82.990,104.770 83.417 M105.264 85.333 C 105.436 86.228,105.681 86.711,105.559 85.917 C 105.503 85.550,105.389 85.137,105.305 85.000 C 105.205 84.837,105.191 84.953,105.264 85.333 M105.680 86.786 C 105.655 87.165,106.400 89.884,106.470 89.672 C 106.509 89.556,106.410 89.001,106.251 88.439 C 105.823 86.933,105.695 86.560,105.680 86.786 M106.611 90.500 C 106.771 91.382,107.028 91.893,106.904 91.083 C 106.849 90.717,106.736 90.304,106.654 90.167 C 106.559 90.007,106.544 90.127,106.611 90.500 M107.107 92.417 C 107.170 92.783,107.221 93.177,107.222 93.292 C 107.222 93.406,107.288 93.500,107.369 93.500 C 107.536 93.500,107.366 92.377,107.142 92.000 C 107.049 91.844,107.036 92.001,107.107 92.417 " stroke="none" fill="#048514" fill-rule="evenodd"></path><path id="path4" d="" stroke="none" fill="#1c5c3c" fill-rule="evenodd"></path></g></svg>